%TF.GenerationSoftware,KiCad,Pcbnew,(5.1.6-0-10_14)*%
%TF.CreationDate,2021-05-07T14:06:44-07:00*%
%TF.ProjectId,LEDDriverFilter,4c454444-7269-4766-9572-46696c746572,rev?*%
%TF.SameCoordinates,Original*%
%TF.FileFunction,Soldermask,Top*%
%TF.FilePolarity,Negative*%
%FSLAX46Y46*%
G04 Gerber Fmt 4.6, Leading zero omitted, Abs format (unit mm)*
G04 Created by KiCad (PCBNEW (5.1.6-0-10_14)) date 2021-05-07 14:06:44*
%MOMM*%
%LPD*%
G01*
G04 APERTURE LIST*
%ADD10C,4.100000*%
%ADD11R,4.100000X4.100000*%
%ADD12C,1.700000*%
%ADD13C,2.100000*%
%ADD14C,4.500000*%
%ADD15C,3.100000*%
%ADD16R,3.100000X3.100000*%
G04 APERTURE END LIST*
D10*
%TO.C,C1*%
X113665000Y-89060000D03*
D11*
X113665000Y-99060000D03*
%TD*%
%TO.C,R2*%
G36*
G01*
X167161738Y-109375000D02*
X168118262Y-109375000D01*
G75*
G02*
X168390000Y-109646738I0J-271738D01*
G01*
X168390000Y-110353262D01*
G75*
G02*
X168118262Y-110625000I-271738J0D01*
G01*
X167161738Y-110625000D01*
G75*
G02*
X166890000Y-110353262I0J271738D01*
G01*
X166890000Y-109646738D01*
G75*
G02*
X167161738Y-109375000I271738J0D01*
G01*
G37*
G36*
G01*
X167161738Y-107325000D02*
X168118262Y-107325000D01*
G75*
G02*
X168390000Y-107596738I0J-271738D01*
G01*
X168390000Y-108303262D01*
G75*
G02*
X168118262Y-108575000I-271738J0D01*
G01*
X167161738Y-108575000D01*
G75*
G02*
X166890000Y-108303262I0J271738D01*
G01*
X166890000Y-107596738D01*
G75*
G02*
X167161738Y-107325000I271738J0D01*
G01*
G37*
%TD*%
D12*
%TO.C,U1*%
X175215000Y-113020000D03*
X177165000Y-110245000D03*
X177165000Y-112395000D03*
X175215000Y-109620000D03*
%TD*%
D13*
%TO.C,TP1*%
X89535000Y-113538000D03*
%TD*%
%TO.C,TP3*%
X89662000Y-121412000D03*
%TD*%
%TO.C,TP2*%
X89535000Y-117348000D03*
%TD*%
%TO.C,TP4*%
X89662000Y-125476000D03*
%TD*%
%TO.C,TP5*%
X89789000Y-129540000D03*
%TD*%
D14*
%TO.C,L2*%
X148590000Y-105450000D03*
X148590000Y-82550000D03*
%TD*%
%TO.C,L1*%
X113665000Y-118070000D03*
X113665000Y-140970000D03*
%TD*%
%TO.C,R1*%
G36*
G01*
X93990000Y-95347262D02*
X93990000Y-94390738D01*
G75*
G02*
X94261738Y-94119000I271738J0D01*
G01*
X94968262Y-94119000D01*
G75*
G02*
X95240000Y-94390738I0J-271738D01*
G01*
X95240000Y-95347262D01*
G75*
G02*
X94968262Y-95619000I-271738J0D01*
G01*
X94261738Y-95619000D01*
G75*
G02*
X93990000Y-95347262I0J271738D01*
G01*
G37*
G36*
G01*
X91940000Y-95347262D02*
X91940000Y-94390738D01*
G75*
G02*
X92211738Y-94119000I271738J0D01*
G01*
X92918262Y-94119000D01*
G75*
G02*
X93190000Y-94390738I0J-271738D01*
G01*
X93190000Y-95347262D01*
G75*
G02*
X92918262Y-95619000I-271738J0D01*
G01*
X92211738Y-95619000D01*
G75*
G02*
X91940000Y-95347262I0J271738D01*
G01*
G37*
%TD*%
D15*
%TO.C,J1*%
X85217000Y-86995000D03*
D16*
X85217000Y-102235000D03*
D15*
X85217000Y-92075000D03*
X85217000Y-97155000D03*
%TD*%
D10*
%TO.C,C2*%
X148590000Y-134460000D03*
D11*
X148590000Y-124460000D03*
%TD*%
M02*
