%TF.GenerationSoftware,KiCad,Pcbnew,(5.1.6-0-10_14)*%
%TF.CreationDate,2021-05-07T14:06:44-07:00*%
%TF.ProjectId,LEDDriverFilter,4c454444-7269-4766-9572-46696c746572,rev?*%
%TF.SameCoordinates,Original*%
%TF.FileFunction,Copper,L2,Bot*%
%TF.FilePolarity,Positive*%
%FSLAX46Y46*%
G04 Gerber Fmt 4.6, Leading zero omitted, Abs format (unit mm)*
G04 Created by KiCad (PCBNEW (5.1.6-0-10_14)) date 2021-05-07 14:06:44*
%MOMM*%
%LPD*%
G01*
G04 APERTURE LIST*
%TA.AperFunction,ComponentPad*%
%ADD10C,4.000000*%
%TD*%
%TA.AperFunction,ComponentPad*%
%ADD11R,4.000000X4.000000*%
%TD*%
%TA.AperFunction,ComponentPad*%
%ADD12C,1.600000*%
%TD*%
%TA.AperFunction,ComponentPad*%
%ADD13C,2.000000*%
%TD*%
%TA.AperFunction,ComponentPad*%
%ADD14C,4.400000*%
%TD*%
%TA.AperFunction,ComponentPad*%
%ADD15C,3.000000*%
%TD*%
%TA.AperFunction,ComponentPad*%
%ADD16R,3.000000X3.000000*%
%TD*%
%TA.AperFunction,ViaPad*%
%ADD17C,0.800000*%
%TD*%
%TA.AperFunction,Conductor*%
%ADD18C,0.250000*%
%TD*%
%TA.AperFunction,Conductor*%
%ADD19C,0.254000*%
%TD*%
G04 APERTURE END LIST*
D10*
%TO.P,C1,2*%
%TO.N,GND*%
X113665000Y-89060000D03*
D11*
%TO.P,C1,1*%
%TO.N,/Vi1*%
X113665000Y-99060000D03*
%TD*%
D12*
%TO.P,U1,1*%
%TO.N,/Vout*%
X175215000Y-113020000D03*
%TO.P,U1,3*%
%TO.N,GND*%
X177165000Y-110245000D03*
%TO.P,U1,2*%
X177165000Y-112395000D03*
%TO.P,U1,4*%
X175215000Y-109620000D03*
%TD*%
D13*
%TO.P,TP1,1*%
%TO.N,/Vin*%
X89535000Y-113538000D03*
%TD*%
%TO.P,TP3,1*%
%TO.N,/Vi2*%
X89662000Y-121412000D03*
%TD*%
%TO.P,TP2,1*%
%TO.N,/Vi1*%
X89535000Y-117348000D03*
%TD*%
%TO.P,TP4,1*%
%TO.N,/Vi3*%
X89662000Y-125476000D03*
%TD*%
%TO.P,TP5,1*%
%TO.N,/Vout*%
X89789000Y-129540000D03*
%TD*%
D14*
%TO.P,L2,2*%
%TO.N,/Vi2*%
X148590000Y-105450000D03*
%TO.P,L2,1*%
%TO.N,/Vi3*%
X148590000Y-82550000D03*
%TD*%
%TO.P,L1,2*%
%TO.N,/Vi1*%
X113665000Y-118070000D03*
%TO.P,L1,1*%
%TO.N,/Vi2*%
X113665000Y-140970000D03*
%TD*%
D15*
%TO.P,J1,4*%
%TO.N,GND*%
X85217000Y-86995000D03*
D16*
%TO.P,J1,1*%
%TO.N,/Vin*%
X85217000Y-102235000D03*
D15*
%TO.P,J1,3*%
%TO.N,GND*%
X85217000Y-92075000D03*
%TO.P,J1,2*%
X85217000Y-97155000D03*
%TD*%
D10*
%TO.P,C2,2*%
%TO.N,GND*%
X148590000Y-134460000D03*
D11*
%TO.P,C2,1*%
%TO.N,/Vi2*%
X148590000Y-124460000D03*
%TD*%
D17*
%TO.N,/Vi3*%
X98425000Y-123190000D03*
%TO.N,/Vout*%
X100965000Y-125095000D03*
%TD*%
D18*
%TO.N,/Vi3*%
X89662000Y-125476000D02*
X96139000Y-125476000D01*
X96139000Y-125476000D02*
X98425000Y-123190000D01*
%TO.N,/Vout*%
X89789000Y-129540000D02*
X96520000Y-129540000D01*
X96520000Y-129540000D02*
X100965000Y-125095000D01*
%TD*%
D19*
%TO.N,GND*%
G36*
X180950001Y-147930000D02*
G01*
X81940000Y-147930000D01*
X81940000Y-140690777D01*
X110830000Y-140690777D01*
X110830000Y-141249223D01*
X110938948Y-141796939D01*
X111152656Y-142312876D01*
X111462912Y-142777207D01*
X111857793Y-143172088D01*
X112322124Y-143482344D01*
X112838061Y-143696052D01*
X113385777Y-143805000D01*
X113944223Y-143805000D01*
X114491939Y-143696052D01*
X115007876Y-143482344D01*
X115472207Y-143172088D01*
X115867088Y-142777207D01*
X116177344Y-142312876D01*
X116391052Y-141796939D01*
X116500000Y-141249223D01*
X116500000Y-140690777D01*
X116391052Y-140143061D01*
X116177344Y-139627124D01*
X115867088Y-139162793D01*
X115472207Y-138767912D01*
X115007876Y-138457656D01*
X114491939Y-138243948D01*
X113944223Y-138135000D01*
X113385777Y-138135000D01*
X112838061Y-138243948D01*
X112322124Y-138457656D01*
X111857793Y-138767912D01*
X111462912Y-139162793D01*
X111152656Y-139627124D01*
X110938948Y-140143061D01*
X110830000Y-140690777D01*
X81940000Y-140690777D01*
X81940000Y-136307499D01*
X146922106Y-136307499D01*
X147138228Y-136674258D01*
X147598105Y-136914938D01*
X148096098Y-137061275D01*
X148613071Y-137107648D01*
X149129159Y-137052273D01*
X149624526Y-136897279D01*
X150041772Y-136674258D01*
X150257894Y-136307499D01*
X148590000Y-134639605D01*
X146922106Y-136307499D01*
X81940000Y-136307499D01*
X81940000Y-134483071D01*
X145942352Y-134483071D01*
X145997727Y-134999159D01*
X146152721Y-135494526D01*
X146375742Y-135911772D01*
X146742501Y-136127894D01*
X148410395Y-134460000D01*
X148769605Y-134460000D01*
X150437499Y-136127894D01*
X150804258Y-135911772D01*
X151044938Y-135451895D01*
X151191275Y-134953902D01*
X151237648Y-134436929D01*
X151182273Y-133920841D01*
X151027279Y-133425474D01*
X150804258Y-133008228D01*
X150437499Y-132792106D01*
X148769605Y-134460000D01*
X148410395Y-134460000D01*
X146742501Y-132792106D01*
X146375742Y-133008228D01*
X146135062Y-133468105D01*
X145988725Y-133966098D01*
X145942352Y-134483071D01*
X81940000Y-134483071D01*
X81940000Y-132612501D01*
X146922106Y-132612501D01*
X148590000Y-134280395D01*
X150257894Y-132612501D01*
X150041772Y-132245742D01*
X149581895Y-132005062D01*
X149083902Y-131858725D01*
X148566929Y-131812352D01*
X148050841Y-131867727D01*
X147555474Y-132022721D01*
X147138228Y-132245742D01*
X146922106Y-132612501D01*
X81940000Y-132612501D01*
X81940000Y-129378967D01*
X88154000Y-129378967D01*
X88154000Y-129701033D01*
X88216832Y-130016912D01*
X88340082Y-130314463D01*
X88519013Y-130582252D01*
X88746748Y-130809987D01*
X89014537Y-130988918D01*
X89312088Y-131112168D01*
X89627967Y-131175000D01*
X89950033Y-131175000D01*
X90265912Y-131112168D01*
X90563463Y-130988918D01*
X90831252Y-130809987D01*
X91058987Y-130582252D01*
X91237918Y-130314463D01*
X91243909Y-130300000D01*
X96482678Y-130300000D01*
X96520000Y-130303676D01*
X96557322Y-130300000D01*
X96557333Y-130300000D01*
X96668986Y-130289003D01*
X96812247Y-130245546D01*
X96944276Y-130174974D01*
X97060001Y-130080001D01*
X97083804Y-130050997D01*
X101004802Y-126130000D01*
X101066939Y-126130000D01*
X101266898Y-126090226D01*
X101455256Y-126012205D01*
X101624774Y-125898937D01*
X101768937Y-125754774D01*
X101882205Y-125585256D01*
X101960226Y-125396898D01*
X102000000Y-125196939D01*
X102000000Y-124993061D01*
X101960226Y-124793102D01*
X101882205Y-124604744D01*
X101768937Y-124435226D01*
X101624774Y-124291063D01*
X101455256Y-124177795D01*
X101266898Y-124099774D01*
X101066939Y-124060000D01*
X100863061Y-124060000D01*
X100663102Y-124099774D01*
X100474744Y-124177795D01*
X100305226Y-124291063D01*
X100161063Y-124435226D01*
X100047795Y-124604744D01*
X99969774Y-124793102D01*
X99930000Y-124993061D01*
X99930000Y-125055198D01*
X96205199Y-128780000D01*
X91243909Y-128780000D01*
X91237918Y-128765537D01*
X91058987Y-128497748D01*
X90831252Y-128270013D01*
X90563463Y-128091082D01*
X90265912Y-127967832D01*
X89950033Y-127905000D01*
X89627967Y-127905000D01*
X89312088Y-127967832D01*
X89014537Y-128091082D01*
X88746748Y-128270013D01*
X88519013Y-128497748D01*
X88340082Y-128765537D01*
X88216832Y-129063088D01*
X88154000Y-129378967D01*
X81940000Y-129378967D01*
X81940000Y-125314967D01*
X88027000Y-125314967D01*
X88027000Y-125637033D01*
X88089832Y-125952912D01*
X88213082Y-126250463D01*
X88392013Y-126518252D01*
X88619748Y-126745987D01*
X88887537Y-126924918D01*
X89185088Y-127048168D01*
X89500967Y-127111000D01*
X89823033Y-127111000D01*
X90138912Y-127048168D01*
X90436463Y-126924918D01*
X90704252Y-126745987D01*
X90931987Y-126518252D01*
X91110918Y-126250463D01*
X91116909Y-126236000D01*
X96101678Y-126236000D01*
X96139000Y-126239676D01*
X96176322Y-126236000D01*
X96176333Y-126236000D01*
X96287986Y-126225003D01*
X96431247Y-126181546D01*
X96563276Y-126110974D01*
X96679001Y-126016001D01*
X96702804Y-125986997D01*
X98464802Y-124225000D01*
X98526939Y-124225000D01*
X98726898Y-124185226D01*
X98915256Y-124107205D01*
X99084774Y-123993937D01*
X99228937Y-123849774D01*
X99342205Y-123680256D01*
X99420226Y-123491898D01*
X99460000Y-123291939D01*
X99460000Y-123088061D01*
X99420226Y-122888102D01*
X99342205Y-122699744D01*
X99228937Y-122530226D01*
X99158711Y-122460000D01*
X145951928Y-122460000D01*
X145951928Y-126460000D01*
X145964188Y-126584482D01*
X146000498Y-126704180D01*
X146059463Y-126814494D01*
X146138815Y-126911185D01*
X146235506Y-126990537D01*
X146345820Y-127049502D01*
X146465518Y-127085812D01*
X146590000Y-127098072D01*
X150590000Y-127098072D01*
X150714482Y-127085812D01*
X150834180Y-127049502D01*
X150944494Y-126990537D01*
X151041185Y-126911185D01*
X151120537Y-126814494D01*
X151179502Y-126704180D01*
X151215812Y-126584482D01*
X151228072Y-126460000D01*
X151228072Y-122460000D01*
X151215812Y-122335518D01*
X151179502Y-122215820D01*
X151120537Y-122105506D01*
X151041185Y-122008815D01*
X150944494Y-121929463D01*
X150834180Y-121870498D01*
X150714482Y-121834188D01*
X150590000Y-121821928D01*
X146590000Y-121821928D01*
X146465518Y-121834188D01*
X146345820Y-121870498D01*
X146235506Y-121929463D01*
X146138815Y-122008815D01*
X146059463Y-122105506D01*
X146000498Y-122215820D01*
X145964188Y-122335518D01*
X145951928Y-122460000D01*
X99158711Y-122460000D01*
X99084774Y-122386063D01*
X98915256Y-122272795D01*
X98726898Y-122194774D01*
X98526939Y-122155000D01*
X98323061Y-122155000D01*
X98123102Y-122194774D01*
X97934744Y-122272795D01*
X97765226Y-122386063D01*
X97621063Y-122530226D01*
X97507795Y-122699744D01*
X97429774Y-122888102D01*
X97390000Y-123088061D01*
X97390000Y-123150198D01*
X95824199Y-124716000D01*
X91116909Y-124716000D01*
X91110918Y-124701537D01*
X90931987Y-124433748D01*
X90704252Y-124206013D01*
X90436463Y-124027082D01*
X90138912Y-123903832D01*
X89823033Y-123841000D01*
X89500967Y-123841000D01*
X89185088Y-123903832D01*
X88887537Y-124027082D01*
X88619748Y-124206013D01*
X88392013Y-124433748D01*
X88213082Y-124701537D01*
X88089832Y-124999088D01*
X88027000Y-125314967D01*
X81940000Y-125314967D01*
X81940000Y-121250967D01*
X88027000Y-121250967D01*
X88027000Y-121573033D01*
X88089832Y-121888912D01*
X88213082Y-122186463D01*
X88392013Y-122454252D01*
X88619748Y-122681987D01*
X88887537Y-122860918D01*
X89185088Y-122984168D01*
X89500967Y-123047000D01*
X89823033Y-123047000D01*
X90138912Y-122984168D01*
X90436463Y-122860918D01*
X90704252Y-122681987D01*
X90931987Y-122454252D01*
X91110918Y-122186463D01*
X91234168Y-121888912D01*
X91297000Y-121573033D01*
X91297000Y-121250967D01*
X91234168Y-120935088D01*
X91110918Y-120637537D01*
X90931987Y-120369748D01*
X90704252Y-120142013D01*
X90436463Y-119963082D01*
X90138912Y-119839832D01*
X89823033Y-119777000D01*
X89500967Y-119777000D01*
X89185088Y-119839832D01*
X88887537Y-119963082D01*
X88619748Y-120142013D01*
X88392013Y-120369748D01*
X88213082Y-120637537D01*
X88089832Y-120935088D01*
X88027000Y-121250967D01*
X81940000Y-121250967D01*
X81940000Y-117186967D01*
X87900000Y-117186967D01*
X87900000Y-117509033D01*
X87962832Y-117824912D01*
X88086082Y-118122463D01*
X88265013Y-118390252D01*
X88492748Y-118617987D01*
X88760537Y-118796918D01*
X89058088Y-118920168D01*
X89373967Y-118983000D01*
X89696033Y-118983000D01*
X90011912Y-118920168D01*
X90309463Y-118796918D01*
X90577252Y-118617987D01*
X90804987Y-118390252D01*
X90983918Y-118122463D01*
X91107168Y-117824912D01*
X91113957Y-117790777D01*
X110830000Y-117790777D01*
X110830000Y-118349223D01*
X110938948Y-118896939D01*
X111152656Y-119412876D01*
X111462912Y-119877207D01*
X111857793Y-120272088D01*
X112322124Y-120582344D01*
X112838061Y-120796052D01*
X113385777Y-120905000D01*
X113944223Y-120905000D01*
X114491939Y-120796052D01*
X115007876Y-120582344D01*
X115472207Y-120272088D01*
X115867088Y-119877207D01*
X116177344Y-119412876D01*
X116391052Y-118896939D01*
X116500000Y-118349223D01*
X116500000Y-117790777D01*
X116391052Y-117243061D01*
X116177344Y-116727124D01*
X115867088Y-116262793D01*
X115472207Y-115867912D01*
X115007876Y-115557656D01*
X114491939Y-115343948D01*
X113944223Y-115235000D01*
X113385777Y-115235000D01*
X112838061Y-115343948D01*
X112322124Y-115557656D01*
X111857793Y-115867912D01*
X111462912Y-116262793D01*
X111152656Y-116727124D01*
X110938948Y-117243061D01*
X110830000Y-117790777D01*
X91113957Y-117790777D01*
X91170000Y-117509033D01*
X91170000Y-117186967D01*
X91107168Y-116871088D01*
X90983918Y-116573537D01*
X90804987Y-116305748D01*
X90577252Y-116078013D01*
X90309463Y-115899082D01*
X90011912Y-115775832D01*
X89696033Y-115713000D01*
X89373967Y-115713000D01*
X89058088Y-115775832D01*
X88760537Y-115899082D01*
X88492748Y-116078013D01*
X88265013Y-116305748D01*
X88086082Y-116573537D01*
X87962832Y-116871088D01*
X87900000Y-117186967D01*
X81940000Y-117186967D01*
X81940000Y-113376967D01*
X87900000Y-113376967D01*
X87900000Y-113699033D01*
X87962832Y-114014912D01*
X88086082Y-114312463D01*
X88265013Y-114580252D01*
X88492748Y-114807987D01*
X88760537Y-114986918D01*
X89058088Y-115110168D01*
X89373967Y-115173000D01*
X89696033Y-115173000D01*
X90011912Y-115110168D01*
X90309463Y-114986918D01*
X90577252Y-114807987D01*
X90804987Y-114580252D01*
X90983918Y-114312463D01*
X91107168Y-114014912D01*
X91170000Y-113699033D01*
X91170000Y-113376967D01*
X91107168Y-113061088D01*
X91031606Y-112878665D01*
X173780000Y-112878665D01*
X173780000Y-113161335D01*
X173835147Y-113438574D01*
X173943320Y-113699727D01*
X174100363Y-113934759D01*
X174300241Y-114134637D01*
X174535273Y-114291680D01*
X174796426Y-114399853D01*
X175073665Y-114455000D01*
X175356335Y-114455000D01*
X175633574Y-114399853D01*
X175894727Y-114291680D01*
X176129759Y-114134637D01*
X176329637Y-113934759D01*
X176486680Y-113699727D01*
X176499894Y-113667825D01*
X176678996Y-113752571D01*
X176953184Y-113821300D01*
X177235512Y-113835217D01*
X177515130Y-113793787D01*
X177781292Y-113698603D01*
X177906514Y-113631671D01*
X177978097Y-113387702D01*
X177165000Y-112574605D01*
X177150858Y-112588748D01*
X176971253Y-112409143D01*
X176985395Y-112395000D01*
X177344605Y-112395000D01*
X178157702Y-113208097D01*
X178401671Y-113136514D01*
X178522571Y-112881004D01*
X178591300Y-112606816D01*
X178605217Y-112324488D01*
X178563787Y-112044870D01*
X178468603Y-111778708D01*
X178401671Y-111653486D01*
X178157702Y-111581903D01*
X177344605Y-112395000D01*
X176985395Y-112395000D01*
X176172298Y-111581903D01*
X175928329Y-111653486D01*
X175885303Y-111744417D01*
X175633574Y-111640147D01*
X175356335Y-111585000D01*
X175073665Y-111585000D01*
X174796426Y-111640147D01*
X174535273Y-111748320D01*
X174300241Y-111905363D01*
X174100363Y-112105241D01*
X173943320Y-112340273D01*
X173835147Y-112601426D01*
X173780000Y-112878665D01*
X91031606Y-112878665D01*
X90983918Y-112763537D01*
X90804987Y-112495748D01*
X90577252Y-112268013D01*
X90309463Y-112089082D01*
X90011912Y-111965832D01*
X89696033Y-111903000D01*
X89373967Y-111903000D01*
X89058088Y-111965832D01*
X88760537Y-112089082D01*
X88492748Y-112268013D01*
X88265013Y-112495748D01*
X88086082Y-112763537D01*
X87962832Y-113061088D01*
X87900000Y-113376967D01*
X81940000Y-113376967D01*
X81940000Y-111237702D01*
X176351903Y-111237702D01*
X176376050Y-111320000D01*
X176351903Y-111402298D01*
X176420251Y-111470646D01*
X176423486Y-111481671D01*
X176438273Y-111488668D01*
X177165000Y-112215395D01*
X177889779Y-111490616D01*
X177906514Y-111481671D01*
X177909749Y-111470646D01*
X177978097Y-111402298D01*
X177953950Y-111320000D01*
X177978097Y-111237702D01*
X177909749Y-111169354D01*
X177906514Y-111158329D01*
X177891727Y-111151332D01*
X177165000Y-110424605D01*
X176440221Y-111149384D01*
X176423486Y-111158329D01*
X176420251Y-111169354D01*
X176351903Y-111237702D01*
X81940000Y-111237702D01*
X81940000Y-110612702D01*
X174401903Y-110612702D01*
X174473486Y-110856671D01*
X174728996Y-110977571D01*
X175003184Y-111046300D01*
X175285512Y-111060217D01*
X175565130Y-111018787D01*
X175831292Y-110923603D01*
X175880612Y-110897241D01*
X175928329Y-110986514D01*
X176172298Y-111058097D01*
X176985395Y-110245000D01*
X177344605Y-110245000D01*
X178157702Y-111058097D01*
X178401671Y-110986514D01*
X178522571Y-110731004D01*
X178591300Y-110456816D01*
X178605217Y-110174488D01*
X178563787Y-109894870D01*
X178468603Y-109628708D01*
X178401671Y-109503486D01*
X178157702Y-109431903D01*
X177344605Y-110245000D01*
X176985395Y-110245000D01*
X176971253Y-110230858D01*
X177150858Y-110051253D01*
X177165000Y-110065395D01*
X177978097Y-109252298D01*
X177906514Y-109008329D01*
X177651004Y-108887429D01*
X177376816Y-108818700D01*
X177094488Y-108804783D01*
X176814870Y-108846213D01*
X176548708Y-108941397D01*
X176499388Y-108967759D01*
X176451671Y-108878486D01*
X176207702Y-108806903D01*
X175394605Y-109620000D01*
X175408748Y-109634143D01*
X175229143Y-109813748D01*
X175215000Y-109799605D01*
X174401903Y-110612702D01*
X81940000Y-110612702D01*
X81940000Y-109690512D01*
X173774783Y-109690512D01*
X173816213Y-109970130D01*
X173911397Y-110236292D01*
X173978329Y-110361514D01*
X174222298Y-110433097D01*
X175035395Y-109620000D01*
X174222298Y-108806903D01*
X173978329Y-108878486D01*
X173857429Y-109133996D01*
X173788700Y-109408184D01*
X173774783Y-109690512D01*
X81940000Y-109690512D01*
X81940000Y-108627298D01*
X174401903Y-108627298D01*
X175215000Y-109440395D01*
X176028097Y-108627298D01*
X175956514Y-108383329D01*
X175701004Y-108262429D01*
X175426816Y-108193700D01*
X175144488Y-108179783D01*
X174864870Y-108221213D01*
X174598708Y-108316397D01*
X174473486Y-108383329D01*
X174401903Y-108627298D01*
X81940000Y-108627298D01*
X81940000Y-105170777D01*
X145755000Y-105170777D01*
X145755000Y-105729223D01*
X145863948Y-106276939D01*
X146077656Y-106792876D01*
X146387912Y-107257207D01*
X146782793Y-107652088D01*
X147247124Y-107962344D01*
X147763061Y-108176052D01*
X148310777Y-108285000D01*
X148869223Y-108285000D01*
X149416939Y-108176052D01*
X149932876Y-107962344D01*
X150397207Y-107652088D01*
X150792088Y-107257207D01*
X151102344Y-106792876D01*
X151316052Y-106276939D01*
X151425000Y-105729223D01*
X151425000Y-105170777D01*
X151316052Y-104623061D01*
X151102344Y-104107124D01*
X150792088Y-103642793D01*
X150397207Y-103247912D01*
X149932876Y-102937656D01*
X149416939Y-102723948D01*
X148869223Y-102615000D01*
X148310777Y-102615000D01*
X147763061Y-102723948D01*
X147247124Y-102937656D01*
X146782793Y-103247912D01*
X146387912Y-103642793D01*
X146077656Y-104107124D01*
X145863948Y-104623061D01*
X145755000Y-105170777D01*
X81940000Y-105170777D01*
X81940000Y-100735000D01*
X83078928Y-100735000D01*
X83078928Y-103735000D01*
X83091188Y-103859482D01*
X83127498Y-103979180D01*
X83186463Y-104089494D01*
X83265815Y-104186185D01*
X83362506Y-104265537D01*
X83472820Y-104324502D01*
X83592518Y-104360812D01*
X83717000Y-104373072D01*
X86717000Y-104373072D01*
X86841482Y-104360812D01*
X86961180Y-104324502D01*
X87071494Y-104265537D01*
X87168185Y-104186185D01*
X87247537Y-104089494D01*
X87306502Y-103979180D01*
X87342812Y-103859482D01*
X87355072Y-103735000D01*
X87355072Y-100735000D01*
X87342812Y-100610518D01*
X87306502Y-100490820D01*
X87247537Y-100380506D01*
X87168185Y-100283815D01*
X87071494Y-100204463D01*
X86961180Y-100145498D01*
X86841482Y-100109188D01*
X86717000Y-100096928D01*
X83717000Y-100096928D01*
X83592518Y-100109188D01*
X83472820Y-100145498D01*
X83362506Y-100204463D01*
X83265815Y-100283815D01*
X83186463Y-100380506D01*
X83127498Y-100490820D01*
X83091188Y-100610518D01*
X83078928Y-100735000D01*
X81940000Y-100735000D01*
X81940000Y-98646653D01*
X83904952Y-98646653D01*
X84060962Y-98962214D01*
X84435745Y-99153020D01*
X84840551Y-99267044D01*
X85259824Y-99299902D01*
X85677451Y-99250334D01*
X86077383Y-99120243D01*
X86373038Y-98962214D01*
X86529048Y-98646653D01*
X85217000Y-97334605D01*
X83904952Y-98646653D01*
X81940000Y-98646653D01*
X81940000Y-97197824D01*
X83072098Y-97197824D01*
X83121666Y-97615451D01*
X83251757Y-98015383D01*
X83409786Y-98311038D01*
X83725347Y-98467048D01*
X85037395Y-97155000D01*
X85396605Y-97155000D01*
X86708653Y-98467048D01*
X87024214Y-98311038D01*
X87215020Y-97936255D01*
X87329044Y-97531449D01*
X87361902Y-97112176D01*
X87355710Y-97060000D01*
X111026928Y-97060000D01*
X111026928Y-101060000D01*
X111039188Y-101184482D01*
X111075498Y-101304180D01*
X111134463Y-101414494D01*
X111213815Y-101511185D01*
X111310506Y-101590537D01*
X111420820Y-101649502D01*
X111540518Y-101685812D01*
X111665000Y-101698072D01*
X115665000Y-101698072D01*
X115789482Y-101685812D01*
X115909180Y-101649502D01*
X116019494Y-101590537D01*
X116116185Y-101511185D01*
X116195537Y-101414494D01*
X116254502Y-101304180D01*
X116290812Y-101184482D01*
X116303072Y-101060000D01*
X116303072Y-97060000D01*
X116290812Y-96935518D01*
X116254502Y-96815820D01*
X116195537Y-96705506D01*
X116116185Y-96608815D01*
X116019494Y-96529463D01*
X115909180Y-96470498D01*
X115789482Y-96434188D01*
X115665000Y-96421928D01*
X111665000Y-96421928D01*
X111540518Y-96434188D01*
X111420820Y-96470498D01*
X111310506Y-96529463D01*
X111213815Y-96608815D01*
X111134463Y-96705506D01*
X111075498Y-96815820D01*
X111039188Y-96935518D01*
X111026928Y-97060000D01*
X87355710Y-97060000D01*
X87312334Y-96694549D01*
X87182243Y-96294617D01*
X87024214Y-95998962D01*
X86708653Y-95842952D01*
X85396605Y-97155000D01*
X85037395Y-97155000D01*
X83725347Y-95842952D01*
X83409786Y-95998962D01*
X83218980Y-96373745D01*
X83104956Y-96778551D01*
X83072098Y-97197824D01*
X81940000Y-97197824D01*
X81940000Y-95663347D01*
X83904952Y-95663347D01*
X85217000Y-96975395D01*
X86529048Y-95663347D01*
X86373038Y-95347786D01*
X85998255Y-95156980D01*
X85593449Y-95042956D01*
X85174176Y-95010098D01*
X84756549Y-95059666D01*
X84356617Y-95189757D01*
X84060962Y-95347786D01*
X83904952Y-95663347D01*
X81940000Y-95663347D01*
X81940000Y-93566653D01*
X83904952Y-93566653D01*
X84060962Y-93882214D01*
X84435745Y-94073020D01*
X84840551Y-94187044D01*
X85259824Y-94219902D01*
X85677451Y-94170334D01*
X86077383Y-94040243D01*
X86373038Y-93882214D01*
X86529048Y-93566653D01*
X85217000Y-92254605D01*
X83904952Y-93566653D01*
X81940000Y-93566653D01*
X81940000Y-92117824D01*
X83072098Y-92117824D01*
X83121666Y-92535451D01*
X83251757Y-92935383D01*
X83409786Y-93231038D01*
X83725347Y-93387048D01*
X85037395Y-92075000D01*
X85396605Y-92075000D01*
X86708653Y-93387048D01*
X87024214Y-93231038D01*
X87215020Y-92856255D01*
X87329044Y-92451449D01*
X87361902Y-92032176D01*
X87312334Y-91614549D01*
X87182243Y-91214617D01*
X87024214Y-90918962D01*
X87001028Y-90907499D01*
X111997106Y-90907499D01*
X112213228Y-91274258D01*
X112673105Y-91514938D01*
X113171098Y-91661275D01*
X113688071Y-91707648D01*
X114204159Y-91652273D01*
X114699526Y-91497279D01*
X115116772Y-91274258D01*
X115332894Y-90907499D01*
X113665000Y-89239605D01*
X111997106Y-90907499D01*
X87001028Y-90907499D01*
X86708653Y-90762952D01*
X85396605Y-92075000D01*
X85037395Y-92075000D01*
X83725347Y-90762952D01*
X83409786Y-90918962D01*
X83218980Y-91293745D01*
X83104956Y-91698551D01*
X83072098Y-92117824D01*
X81940000Y-92117824D01*
X81940000Y-90583347D01*
X83904952Y-90583347D01*
X85217000Y-91895395D01*
X86529048Y-90583347D01*
X86373038Y-90267786D01*
X85998255Y-90076980D01*
X85593449Y-89962956D01*
X85174176Y-89930098D01*
X84756549Y-89979666D01*
X84356617Y-90109757D01*
X84060962Y-90267786D01*
X83904952Y-90583347D01*
X81940000Y-90583347D01*
X81940000Y-88486653D01*
X83904952Y-88486653D01*
X84060962Y-88802214D01*
X84435745Y-88993020D01*
X84840551Y-89107044D01*
X85259824Y-89139902D01*
X85677451Y-89090334D01*
X85699779Y-89083071D01*
X111017352Y-89083071D01*
X111072727Y-89599159D01*
X111227721Y-90094526D01*
X111450742Y-90511772D01*
X111817501Y-90727894D01*
X113485395Y-89060000D01*
X113844605Y-89060000D01*
X115512499Y-90727894D01*
X115879258Y-90511772D01*
X116119938Y-90051895D01*
X116266275Y-89553902D01*
X116312648Y-89036929D01*
X116257273Y-88520841D01*
X116102279Y-88025474D01*
X115879258Y-87608228D01*
X115512499Y-87392106D01*
X113844605Y-89060000D01*
X113485395Y-89060000D01*
X111817501Y-87392106D01*
X111450742Y-87608228D01*
X111210062Y-88068105D01*
X111063725Y-88566098D01*
X111017352Y-89083071D01*
X85699779Y-89083071D01*
X86077383Y-88960243D01*
X86373038Y-88802214D01*
X86529048Y-88486653D01*
X85217000Y-87174605D01*
X83904952Y-88486653D01*
X81940000Y-88486653D01*
X81940000Y-87037824D01*
X83072098Y-87037824D01*
X83121666Y-87455451D01*
X83251757Y-87855383D01*
X83409786Y-88151038D01*
X83725347Y-88307048D01*
X85037395Y-86995000D01*
X85396605Y-86995000D01*
X86708653Y-88307048D01*
X87024214Y-88151038D01*
X87215020Y-87776255D01*
X87329044Y-87371449D01*
X87341500Y-87212501D01*
X111997106Y-87212501D01*
X113665000Y-88880395D01*
X115332894Y-87212501D01*
X115116772Y-86845742D01*
X114656895Y-86605062D01*
X114158902Y-86458725D01*
X113641929Y-86412352D01*
X113125841Y-86467727D01*
X112630474Y-86622721D01*
X112213228Y-86845742D01*
X111997106Y-87212501D01*
X87341500Y-87212501D01*
X87361902Y-86952176D01*
X87312334Y-86534549D01*
X87182243Y-86134617D01*
X87024214Y-85838962D01*
X86708653Y-85682952D01*
X85396605Y-86995000D01*
X85037395Y-86995000D01*
X83725347Y-85682952D01*
X83409786Y-85838962D01*
X83218980Y-86213745D01*
X83104956Y-86618551D01*
X83072098Y-87037824D01*
X81940000Y-87037824D01*
X81940000Y-85503347D01*
X83904952Y-85503347D01*
X85217000Y-86815395D01*
X86529048Y-85503347D01*
X86373038Y-85187786D01*
X85998255Y-84996980D01*
X85593449Y-84882956D01*
X85174176Y-84850098D01*
X84756549Y-84899666D01*
X84356617Y-85029757D01*
X84060962Y-85187786D01*
X83904952Y-85503347D01*
X81940000Y-85503347D01*
X81940000Y-82270777D01*
X145755000Y-82270777D01*
X145755000Y-82829223D01*
X145863948Y-83376939D01*
X146077656Y-83892876D01*
X146387912Y-84357207D01*
X146782793Y-84752088D01*
X147247124Y-85062344D01*
X147763061Y-85276052D01*
X148310777Y-85385000D01*
X148869223Y-85385000D01*
X149416939Y-85276052D01*
X149932876Y-85062344D01*
X150397207Y-84752088D01*
X150792088Y-84357207D01*
X151102344Y-83892876D01*
X151316052Y-83376939D01*
X151425000Y-82829223D01*
X151425000Y-82270777D01*
X151316052Y-81723061D01*
X151102344Y-81207124D01*
X150792088Y-80742793D01*
X150397207Y-80347912D01*
X149932876Y-80037656D01*
X149416939Y-79823948D01*
X148869223Y-79715000D01*
X148310777Y-79715000D01*
X147763061Y-79823948D01*
X147247124Y-80037656D01*
X146782793Y-80347912D01*
X146387912Y-80742793D01*
X146077656Y-81207124D01*
X145863948Y-81723061D01*
X145755000Y-82270777D01*
X81940000Y-82270777D01*
X81940000Y-76860000D01*
X180950000Y-76860000D01*
X180950001Y-147930000D01*
G37*
X180950001Y-147930000D02*
X81940000Y-147930000D01*
X81940000Y-140690777D01*
X110830000Y-140690777D01*
X110830000Y-141249223D01*
X110938948Y-141796939D01*
X111152656Y-142312876D01*
X111462912Y-142777207D01*
X111857793Y-143172088D01*
X112322124Y-143482344D01*
X112838061Y-143696052D01*
X113385777Y-143805000D01*
X113944223Y-143805000D01*
X114491939Y-143696052D01*
X115007876Y-143482344D01*
X115472207Y-143172088D01*
X115867088Y-142777207D01*
X116177344Y-142312876D01*
X116391052Y-141796939D01*
X116500000Y-141249223D01*
X116500000Y-140690777D01*
X116391052Y-140143061D01*
X116177344Y-139627124D01*
X115867088Y-139162793D01*
X115472207Y-138767912D01*
X115007876Y-138457656D01*
X114491939Y-138243948D01*
X113944223Y-138135000D01*
X113385777Y-138135000D01*
X112838061Y-138243948D01*
X112322124Y-138457656D01*
X111857793Y-138767912D01*
X111462912Y-139162793D01*
X111152656Y-139627124D01*
X110938948Y-140143061D01*
X110830000Y-140690777D01*
X81940000Y-140690777D01*
X81940000Y-136307499D01*
X146922106Y-136307499D01*
X147138228Y-136674258D01*
X147598105Y-136914938D01*
X148096098Y-137061275D01*
X148613071Y-137107648D01*
X149129159Y-137052273D01*
X149624526Y-136897279D01*
X150041772Y-136674258D01*
X150257894Y-136307499D01*
X148590000Y-134639605D01*
X146922106Y-136307499D01*
X81940000Y-136307499D01*
X81940000Y-134483071D01*
X145942352Y-134483071D01*
X145997727Y-134999159D01*
X146152721Y-135494526D01*
X146375742Y-135911772D01*
X146742501Y-136127894D01*
X148410395Y-134460000D01*
X148769605Y-134460000D01*
X150437499Y-136127894D01*
X150804258Y-135911772D01*
X151044938Y-135451895D01*
X151191275Y-134953902D01*
X151237648Y-134436929D01*
X151182273Y-133920841D01*
X151027279Y-133425474D01*
X150804258Y-133008228D01*
X150437499Y-132792106D01*
X148769605Y-134460000D01*
X148410395Y-134460000D01*
X146742501Y-132792106D01*
X146375742Y-133008228D01*
X146135062Y-133468105D01*
X145988725Y-133966098D01*
X145942352Y-134483071D01*
X81940000Y-134483071D01*
X81940000Y-132612501D01*
X146922106Y-132612501D01*
X148590000Y-134280395D01*
X150257894Y-132612501D01*
X150041772Y-132245742D01*
X149581895Y-132005062D01*
X149083902Y-131858725D01*
X148566929Y-131812352D01*
X148050841Y-131867727D01*
X147555474Y-132022721D01*
X147138228Y-132245742D01*
X146922106Y-132612501D01*
X81940000Y-132612501D01*
X81940000Y-129378967D01*
X88154000Y-129378967D01*
X88154000Y-129701033D01*
X88216832Y-130016912D01*
X88340082Y-130314463D01*
X88519013Y-130582252D01*
X88746748Y-130809987D01*
X89014537Y-130988918D01*
X89312088Y-131112168D01*
X89627967Y-131175000D01*
X89950033Y-131175000D01*
X90265912Y-131112168D01*
X90563463Y-130988918D01*
X90831252Y-130809987D01*
X91058987Y-130582252D01*
X91237918Y-130314463D01*
X91243909Y-130300000D01*
X96482678Y-130300000D01*
X96520000Y-130303676D01*
X96557322Y-130300000D01*
X96557333Y-130300000D01*
X96668986Y-130289003D01*
X96812247Y-130245546D01*
X96944276Y-130174974D01*
X97060001Y-130080001D01*
X97083804Y-130050997D01*
X101004802Y-126130000D01*
X101066939Y-126130000D01*
X101266898Y-126090226D01*
X101455256Y-126012205D01*
X101624774Y-125898937D01*
X101768937Y-125754774D01*
X101882205Y-125585256D01*
X101960226Y-125396898D01*
X102000000Y-125196939D01*
X102000000Y-124993061D01*
X101960226Y-124793102D01*
X101882205Y-124604744D01*
X101768937Y-124435226D01*
X101624774Y-124291063D01*
X101455256Y-124177795D01*
X101266898Y-124099774D01*
X101066939Y-124060000D01*
X100863061Y-124060000D01*
X100663102Y-124099774D01*
X100474744Y-124177795D01*
X100305226Y-124291063D01*
X100161063Y-124435226D01*
X100047795Y-124604744D01*
X99969774Y-124793102D01*
X99930000Y-124993061D01*
X99930000Y-125055198D01*
X96205199Y-128780000D01*
X91243909Y-128780000D01*
X91237918Y-128765537D01*
X91058987Y-128497748D01*
X90831252Y-128270013D01*
X90563463Y-128091082D01*
X90265912Y-127967832D01*
X89950033Y-127905000D01*
X89627967Y-127905000D01*
X89312088Y-127967832D01*
X89014537Y-128091082D01*
X88746748Y-128270013D01*
X88519013Y-128497748D01*
X88340082Y-128765537D01*
X88216832Y-129063088D01*
X88154000Y-129378967D01*
X81940000Y-129378967D01*
X81940000Y-125314967D01*
X88027000Y-125314967D01*
X88027000Y-125637033D01*
X88089832Y-125952912D01*
X88213082Y-126250463D01*
X88392013Y-126518252D01*
X88619748Y-126745987D01*
X88887537Y-126924918D01*
X89185088Y-127048168D01*
X89500967Y-127111000D01*
X89823033Y-127111000D01*
X90138912Y-127048168D01*
X90436463Y-126924918D01*
X90704252Y-126745987D01*
X90931987Y-126518252D01*
X91110918Y-126250463D01*
X91116909Y-126236000D01*
X96101678Y-126236000D01*
X96139000Y-126239676D01*
X96176322Y-126236000D01*
X96176333Y-126236000D01*
X96287986Y-126225003D01*
X96431247Y-126181546D01*
X96563276Y-126110974D01*
X96679001Y-126016001D01*
X96702804Y-125986997D01*
X98464802Y-124225000D01*
X98526939Y-124225000D01*
X98726898Y-124185226D01*
X98915256Y-124107205D01*
X99084774Y-123993937D01*
X99228937Y-123849774D01*
X99342205Y-123680256D01*
X99420226Y-123491898D01*
X99460000Y-123291939D01*
X99460000Y-123088061D01*
X99420226Y-122888102D01*
X99342205Y-122699744D01*
X99228937Y-122530226D01*
X99158711Y-122460000D01*
X145951928Y-122460000D01*
X145951928Y-126460000D01*
X145964188Y-126584482D01*
X146000498Y-126704180D01*
X146059463Y-126814494D01*
X146138815Y-126911185D01*
X146235506Y-126990537D01*
X146345820Y-127049502D01*
X146465518Y-127085812D01*
X146590000Y-127098072D01*
X150590000Y-127098072D01*
X150714482Y-127085812D01*
X150834180Y-127049502D01*
X150944494Y-126990537D01*
X151041185Y-126911185D01*
X151120537Y-126814494D01*
X151179502Y-126704180D01*
X151215812Y-126584482D01*
X151228072Y-126460000D01*
X151228072Y-122460000D01*
X151215812Y-122335518D01*
X151179502Y-122215820D01*
X151120537Y-122105506D01*
X151041185Y-122008815D01*
X150944494Y-121929463D01*
X150834180Y-121870498D01*
X150714482Y-121834188D01*
X150590000Y-121821928D01*
X146590000Y-121821928D01*
X146465518Y-121834188D01*
X146345820Y-121870498D01*
X146235506Y-121929463D01*
X146138815Y-122008815D01*
X146059463Y-122105506D01*
X146000498Y-122215820D01*
X145964188Y-122335518D01*
X145951928Y-122460000D01*
X99158711Y-122460000D01*
X99084774Y-122386063D01*
X98915256Y-122272795D01*
X98726898Y-122194774D01*
X98526939Y-122155000D01*
X98323061Y-122155000D01*
X98123102Y-122194774D01*
X97934744Y-122272795D01*
X97765226Y-122386063D01*
X97621063Y-122530226D01*
X97507795Y-122699744D01*
X97429774Y-122888102D01*
X97390000Y-123088061D01*
X97390000Y-123150198D01*
X95824199Y-124716000D01*
X91116909Y-124716000D01*
X91110918Y-124701537D01*
X90931987Y-124433748D01*
X90704252Y-124206013D01*
X90436463Y-124027082D01*
X90138912Y-123903832D01*
X89823033Y-123841000D01*
X89500967Y-123841000D01*
X89185088Y-123903832D01*
X88887537Y-124027082D01*
X88619748Y-124206013D01*
X88392013Y-124433748D01*
X88213082Y-124701537D01*
X88089832Y-124999088D01*
X88027000Y-125314967D01*
X81940000Y-125314967D01*
X81940000Y-121250967D01*
X88027000Y-121250967D01*
X88027000Y-121573033D01*
X88089832Y-121888912D01*
X88213082Y-122186463D01*
X88392013Y-122454252D01*
X88619748Y-122681987D01*
X88887537Y-122860918D01*
X89185088Y-122984168D01*
X89500967Y-123047000D01*
X89823033Y-123047000D01*
X90138912Y-122984168D01*
X90436463Y-122860918D01*
X90704252Y-122681987D01*
X90931987Y-122454252D01*
X91110918Y-122186463D01*
X91234168Y-121888912D01*
X91297000Y-121573033D01*
X91297000Y-121250967D01*
X91234168Y-120935088D01*
X91110918Y-120637537D01*
X90931987Y-120369748D01*
X90704252Y-120142013D01*
X90436463Y-119963082D01*
X90138912Y-119839832D01*
X89823033Y-119777000D01*
X89500967Y-119777000D01*
X89185088Y-119839832D01*
X88887537Y-119963082D01*
X88619748Y-120142013D01*
X88392013Y-120369748D01*
X88213082Y-120637537D01*
X88089832Y-120935088D01*
X88027000Y-121250967D01*
X81940000Y-121250967D01*
X81940000Y-117186967D01*
X87900000Y-117186967D01*
X87900000Y-117509033D01*
X87962832Y-117824912D01*
X88086082Y-118122463D01*
X88265013Y-118390252D01*
X88492748Y-118617987D01*
X88760537Y-118796918D01*
X89058088Y-118920168D01*
X89373967Y-118983000D01*
X89696033Y-118983000D01*
X90011912Y-118920168D01*
X90309463Y-118796918D01*
X90577252Y-118617987D01*
X90804987Y-118390252D01*
X90983918Y-118122463D01*
X91107168Y-117824912D01*
X91113957Y-117790777D01*
X110830000Y-117790777D01*
X110830000Y-118349223D01*
X110938948Y-118896939D01*
X111152656Y-119412876D01*
X111462912Y-119877207D01*
X111857793Y-120272088D01*
X112322124Y-120582344D01*
X112838061Y-120796052D01*
X113385777Y-120905000D01*
X113944223Y-120905000D01*
X114491939Y-120796052D01*
X115007876Y-120582344D01*
X115472207Y-120272088D01*
X115867088Y-119877207D01*
X116177344Y-119412876D01*
X116391052Y-118896939D01*
X116500000Y-118349223D01*
X116500000Y-117790777D01*
X116391052Y-117243061D01*
X116177344Y-116727124D01*
X115867088Y-116262793D01*
X115472207Y-115867912D01*
X115007876Y-115557656D01*
X114491939Y-115343948D01*
X113944223Y-115235000D01*
X113385777Y-115235000D01*
X112838061Y-115343948D01*
X112322124Y-115557656D01*
X111857793Y-115867912D01*
X111462912Y-116262793D01*
X111152656Y-116727124D01*
X110938948Y-117243061D01*
X110830000Y-117790777D01*
X91113957Y-117790777D01*
X91170000Y-117509033D01*
X91170000Y-117186967D01*
X91107168Y-116871088D01*
X90983918Y-116573537D01*
X90804987Y-116305748D01*
X90577252Y-116078013D01*
X90309463Y-115899082D01*
X90011912Y-115775832D01*
X89696033Y-115713000D01*
X89373967Y-115713000D01*
X89058088Y-115775832D01*
X88760537Y-115899082D01*
X88492748Y-116078013D01*
X88265013Y-116305748D01*
X88086082Y-116573537D01*
X87962832Y-116871088D01*
X87900000Y-117186967D01*
X81940000Y-117186967D01*
X81940000Y-113376967D01*
X87900000Y-113376967D01*
X87900000Y-113699033D01*
X87962832Y-114014912D01*
X88086082Y-114312463D01*
X88265013Y-114580252D01*
X88492748Y-114807987D01*
X88760537Y-114986918D01*
X89058088Y-115110168D01*
X89373967Y-115173000D01*
X89696033Y-115173000D01*
X90011912Y-115110168D01*
X90309463Y-114986918D01*
X90577252Y-114807987D01*
X90804987Y-114580252D01*
X90983918Y-114312463D01*
X91107168Y-114014912D01*
X91170000Y-113699033D01*
X91170000Y-113376967D01*
X91107168Y-113061088D01*
X91031606Y-112878665D01*
X173780000Y-112878665D01*
X173780000Y-113161335D01*
X173835147Y-113438574D01*
X173943320Y-113699727D01*
X174100363Y-113934759D01*
X174300241Y-114134637D01*
X174535273Y-114291680D01*
X174796426Y-114399853D01*
X175073665Y-114455000D01*
X175356335Y-114455000D01*
X175633574Y-114399853D01*
X175894727Y-114291680D01*
X176129759Y-114134637D01*
X176329637Y-113934759D01*
X176486680Y-113699727D01*
X176499894Y-113667825D01*
X176678996Y-113752571D01*
X176953184Y-113821300D01*
X177235512Y-113835217D01*
X177515130Y-113793787D01*
X177781292Y-113698603D01*
X177906514Y-113631671D01*
X177978097Y-113387702D01*
X177165000Y-112574605D01*
X177150858Y-112588748D01*
X176971253Y-112409143D01*
X176985395Y-112395000D01*
X177344605Y-112395000D01*
X178157702Y-113208097D01*
X178401671Y-113136514D01*
X178522571Y-112881004D01*
X178591300Y-112606816D01*
X178605217Y-112324488D01*
X178563787Y-112044870D01*
X178468603Y-111778708D01*
X178401671Y-111653486D01*
X178157702Y-111581903D01*
X177344605Y-112395000D01*
X176985395Y-112395000D01*
X176172298Y-111581903D01*
X175928329Y-111653486D01*
X175885303Y-111744417D01*
X175633574Y-111640147D01*
X175356335Y-111585000D01*
X175073665Y-111585000D01*
X174796426Y-111640147D01*
X174535273Y-111748320D01*
X174300241Y-111905363D01*
X174100363Y-112105241D01*
X173943320Y-112340273D01*
X173835147Y-112601426D01*
X173780000Y-112878665D01*
X91031606Y-112878665D01*
X90983918Y-112763537D01*
X90804987Y-112495748D01*
X90577252Y-112268013D01*
X90309463Y-112089082D01*
X90011912Y-111965832D01*
X89696033Y-111903000D01*
X89373967Y-111903000D01*
X89058088Y-111965832D01*
X88760537Y-112089082D01*
X88492748Y-112268013D01*
X88265013Y-112495748D01*
X88086082Y-112763537D01*
X87962832Y-113061088D01*
X87900000Y-113376967D01*
X81940000Y-113376967D01*
X81940000Y-111237702D01*
X176351903Y-111237702D01*
X176376050Y-111320000D01*
X176351903Y-111402298D01*
X176420251Y-111470646D01*
X176423486Y-111481671D01*
X176438273Y-111488668D01*
X177165000Y-112215395D01*
X177889779Y-111490616D01*
X177906514Y-111481671D01*
X177909749Y-111470646D01*
X177978097Y-111402298D01*
X177953950Y-111320000D01*
X177978097Y-111237702D01*
X177909749Y-111169354D01*
X177906514Y-111158329D01*
X177891727Y-111151332D01*
X177165000Y-110424605D01*
X176440221Y-111149384D01*
X176423486Y-111158329D01*
X176420251Y-111169354D01*
X176351903Y-111237702D01*
X81940000Y-111237702D01*
X81940000Y-110612702D01*
X174401903Y-110612702D01*
X174473486Y-110856671D01*
X174728996Y-110977571D01*
X175003184Y-111046300D01*
X175285512Y-111060217D01*
X175565130Y-111018787D01*
X175831292Y-110923603D01*
X175880612Y-110897241D01*
X175928329Y-110986514D01*
X176172298Y-111058097D01*
X176985395Y-110245000D01*
X177344605Y-110245000D01*
X178157702Y-111058097D01*
X178401671Y-110986514D01*
X178522571Y-110731004D01*
X178591300Y-110456816D01*
X178605217Y-110174488D01*
X178563787Y-109894870D01*
X178468603Y-109628708D01*
X178401671Y-109503486D01*
X178157702Y-109431903D01*
X177344605Y-110245000D01*
X176985395Y-110245000D01*
X176971253Y-110230858D01*
X177150858Y-110051253D01*
X177165000Y-110065395D01*
X177978097Y-109252298D01*
X177906514Y-109008329D01*
X177651004Y-108887429D01*
X177376816Y-108818700D01*
X177094488Y-108804783D01*
X176814870Y-108846213D01*
X176548708Y-108941397D01*
X176499388Y-108967759D01*
X176451671Y-108878486D01*
X176207702Y-108806903D01*
X175394605Y-109620000D01*
X175408748Y-109634143D01*
X175229143Y-109813748D01*
X175215000Y-109799605D01*
X174401903Y-110612702D01*
X81940000Y-110612702D01*
X81940000Y-109690512D01*
X173774783Y-109690512D01*
X173816213Y-109970130D01*
X173911397Y-110236292D01*
X173978329Y-110361514D01*
X174222298Y-110433097D01*
X175035395Y-109620000D01*
X174222298Y-108806903D01*
X173978329Y-108878486D01*
X173857429Y-109133996D01*
X173788700Y-109408184D01*
X173774783Y-109690512D01*
X81940000Y-109690512D01*
X81940000Y-108627298D01*
X174401903Y-108627298D01*
X175215000Y-109440395D01*
X176028097Y-108627298D01*
X175956514Y-108383329D01*
X175701004Y-108262429D01*
X175426816Y-108193700D01*
X175144488Y-108179783D01*
X174864870Y-108221213D01*
X174598708Y-108316397D01*
X174473486Y-108383329D01*
X174401903Y-108627298D01*
X81940000Y-108627298D01*
X81940000Y-105170777D01*
X145755000Y-105170777D01*
X145755000Y-105729223D01*
X145863948Y-106276939D01*
X146077656Y-106792876D01*
X146387912Y-107257207D01*
X146782793Y-107652088D01*
X147247124Y-107962344D01*
X147763061Y-108176052D01*
X148310777Y-108285000D01*
X148869223Y-108285000D01*
X149416939Y-108176052D01*
X149932876Y-107962344D01*
X150397207Y-107652088D01*
X150792088Y-107257207D01*
X151102344Y-106792876D01*
X151316052Y-106276939D01*
X151425000Y-105729223D01*
X151425000Y-105170777D01*
X151316052Y-104623061D01*
X151102344Y-104107124D01*
X150792088Y-103642793D01*
X150397207Y-103247912D01*
X149932876Y-102937656D01*
X149416939Y-102723948D01*
X148869223Y-102615000D01*
X148310777Y-102615000D01*
X147763061Y-102723948D01*
X147247124Y-102937656D01*
X146782793Y-103247912D01*
X146387912Y-103642793D01*
X146077656Y-104107124D01*
X145863948Y-104623061D01*
X145755000Y-105170777D01*
X81940000Y-105170777D01*
X81940000Y-100735000D01*
X83078928Y-100735000D01*
X83078928Y-103735000D01*
X83091188Y-103859482D01*
X83127498Y-103979180D01*
X83186463Y-104089494D01*
X83265815Y-104186185D01*
X83362506Y-104265537D01*
X83472820Y-104324502D01*
X83592518Y-104360812D01*
X83717000Y-104373072D01*
X86717000Y-104373072D01*
X86841482Y-104360812D01*
X86961180Y-104324502D01*
X87071494Y-104265537D01*
X87168185Y-104186185D01*
X87247537Y-104089494D01*
X87306502Y-103979180D01*
X87342812Y-103859482D01*
X87355072Y-103735000D01*
X87355072Y-100735000D01*
X87342812Y-100610518D01*
X87306502Y-100490820D01*
X87247537Y-100380506D01*
X87168185Y-100283815D01*
X87071494Y-100204463D01*
X86961180Y-100145498D01*
X86841482Y-100109188D01*
X86717000Y-100096928D01*
X83717000Y-100096928D01*
X83592518Y-100109188D01*
X83472820Y-100145498D01*
X83362506Y-100204463D01*
X83265815Y-100283815D01*
X83186463Y-100380506D01*
X83127498Y-100490820D01*
X83091188Y-100610518D01*
X83078928Y-100735000D01*
X81940000Y-100735000D01*
X81940000Y-98646653D01*
X83904952Y-98646653D01*
X84060962Y-98962214D01*
X84435745Y-99153020D01*
X84840551Y-99267044D01*
X85259824Y-99299902D01*
X85677451Y-99250334D01*
X86077383Y-99120243D01*
X86373038Y-98962214D01*
X86529048Y-98646653D01*
X85217000Y-97334605D01*
X83904952Y-98646653D01*
X81940000Y-98646653D01*
X81940000Y-97197824D01*
X83072098Y-97197824D01*
X83121666Y-97615451D01*
X83251757Y-98015383D01*
X83409786Y-98311038D01*
X83725347Y-98467048D01*
X85037395Y-97155000D01*
X85396605Y-97155000D01*
X86708653Y-98467048D01*
X87024214Y-98311038D01*
X87215020Y-97936255D01*
X87329044Y-97531449D01*
X87361902Y-97112176D01*
X87355710Y-97060000D01*
X111026928Y-97060000D01*
X111026928Y-101060000D01*
X111039188Y-101184482D01*
X111075498Y-101304180D01*
X111134463Y-101414494D01*
X111213815Y-101511185D01*
X111310506Y-101590537D01*
X111420820Y-101649502D01*
X111540518Y-101685812D01*
X111665000Y-101698072D01*
X115665000Y-101698072D01*
X115789482Y-101685812D01*
X115909180Y-101649502D01*
X116019494Y-101590537D01*
X116116185Y-101511185D01*
X116195537Y-101414494D01*
X116254502Y-101304180D01*
X116290812Y-101184482D01*
X116303072Y-101060000D01*
X116303072Y-97060000D01*
X116290812Y-96935518D01*
X116254502Y-96815820D01*
X116195537Y-96705506D01*
X116116185Y-96608815D01*
X116019494Y-96529463D01*
X115909180Y-96470498D01*
X115789482Y-96434188D01*
X115665000Y-96421928D01*
X111665000Y-96421928D01*
X111540518Y-96434188D01*
X111420820Y-96470498D01*
X111310506Y-96529463D01*
X111213815Y-96608815D01*
X111134463Y-96705506D01*
X111075498Y-96815820D01*
X111039188Y-96935518D01*
X111026928Y-97060000D01*
X87355710Y-97060000D01*
X87312334Y-96694549D01*
X87182243Y-96294617D01*
X87024214Y-95998962D01*
X86708653Y-95842952D01*
X85396605Y-97155000D01*
X85037395Y-97155000D01*
X83725347Y-95842952D01*
X83409786Y-95998962D01*
X83218980Y-96373745D01*
X83104956Y-96778551D01*
X83072098Y-97197824D01*
X81940000Y-97197824D01*
X81940000Y-95663347D01*
X83904952Y-95663347D01*
X85217000Y-96975395D01*
X86529048Y-95663347D01*
X86373038Y-95347786D01*
X85998255Y-95156980D01*
X85593449Y-95042956D01*
X85174176Y-95010098D01*
X84756549Y-95059666D01*
X84356617Y-95189757D01*
X84060962Y-95347786D01*
X83904952Y-95663347D01*
X81940000Y-95663347D01*
X81940000Y-93566653D01*
X83904952Y-93566653D01*
X84060962Y-93882214D01*
X84435745Y-94073020D01*
X84840551Y-94187044D01*
X85259824Y-94219902D01*
X85677451Y-94170334D01*
X86077383Y-94040243D01*
X86373038Y-93882214D01*
X86529048Y-93566653D01*
X85217000Y-92254605D01*
X83904952Y-93566653D01*
X81940000Y-93566653D01*
X81940000Y-92117824D01*
X83072098Y-92117824D01*
X83121666Y-92535451D01*
X83251757Y-92935383D01*
X83409786Y-93231038D01*
X83725347Y-93387048D01*
X85037395Y-92075000D01*
X85396605Y-92075000D01*
X86708653Y-93387048D01*
X87024214Y-93231038D01*
X87215020Y-92856255D01*
X87329044Y-92451449D01*
X87361902Y-92032176D01*
X87312334Y-91614549D01*
X87182243Y-91214617D01*
X87024214Y-90918962D01*
X87001028Y-90907499D01*
X111997106Y-90907499D01*
X112213228Y-91274258D01*
X112673105Y-91514938D01*
X113171098Y-91661275D01*
X113688071Y-91707648D01*
X114204159Y-91652273D01*
X114699526Y-91497279D01*
X115116772Y-91274258D01*
X115332894Y-90907499D01*
X113665000Y-89239605D01*
X111997106Y-90907499D01*
X87001028Y-90907499D01*
X86708653Y-90762952D01*
X85396605Y-92075000D01*
X85037395Y-92075000D01*
X83725347Y-90762952D01*
X83409786Y-90918962D01*
X83218980Y-91293745D01*
X83104956Y-91698551D01*
X83072098Y-92117824D01*
X81940000Y-92117824D01*
X81940000Y-90583347D01*
X83904952Y-90583347D01*
X85217000Y-91895395D01*
X86529048Y-90583347D01*
X86373038Y-90267786D01*
X85998255Y-90076980D01*
X85593449Y-89962956D01*
X85174176Y-89930098D01*
X84756549Y-89979666D01*
X84356617Y-90109757D01*
X84060962Y-90267786D01*
X83904952Y-90583347D01*
X81940000Y-90583347D01*
X81940000Y-88486653D01*
X83904952Y-88486653D01*
X84060962Y-88802214D01*
X84435745Y-88993020D01*
X84840551Y-89107044D01*
X85259824Y-89139902D01*
X85677451Y-89090334D01*
X85699779Y-89083071D01*
X111017352Y-89083071D01*
X111072727Y-89599159D01*
X111227721Y-90094526D01*
X111450742Y-90511772D01*
X111817501Y-90727894D01*
X113485395Y-89060000D01*
X113844605Y-89060000D01*
X115512499Y-90727894D01*
X115879258Y-90511772D01*
X116119938Y-90051895D01*
X116266275Y-89553902D01*
X116312648Y-89036929D01*
X116257273Y-88520841D01*
X116102279Y-88025474D01*
X115879258Y-87608228D01*
X115512499Y-87392106D01*
X113844605Y-89060000D01*
X113485395Y-89060000D01*
X111817501Y-87392106D01*
X111450742Y-87608228D01*
X111210062Y-88068105D01*
X111063725Y-88566098D01*
X111017352Y-89083071D01*
X85699779Y-89083071D01*
X86077383Y-88960243D01*
X86373038Y-88802214D01*
X86529048Y-88486653D01*
X85217000Y-87174605D01*
X83904952Y-88486653D01*
X81940000Y-88486653D01*
X81940000Y-87037824D01*
X83072098Y-87037824D01*
X83121666Y-87455451D01*
X83251757Y-87855383D01*
X83409786Y-88151038D01*
X83725347Y-88307048D01*
X85037395Y-86995000D01*
X85396605Y-86995000D01*
X86708653Y-88307048D01*
X87024214Y-88151038D01*
X87215020Y-87776255D01*
X87329044Y-87371449D01*
X87341500Y-87212501D01*
X111997106Y-87212501D01*
X113665000Y-88880395D01*
X115332894Y-87212501D01*
X115116772Y-86845742D01*
X114656895Y-86605062D01*
X114158902Y-86458725D01*
X113641929Y-86412352D01*
X113125841Y-86467727D01*
X112630474Y-86622721D01*
X112213228Y-86845742D01*
X111997106Y-87212501D01*
X87341500Y-87212501D01*
X87361902Y-86952176D01*
X87312334Y-86534549D01*
X87182243Y-86134617D01*
X87024214Y-85838962D01*
X86708653Y-85682952D01*
X85396605Y-86995000D01*
X85037395Y-86995000D01*
X83725347Y-85682952D01*
X83409786Y-85838962D01*
X83218980Y-86213745D01*
X83104956Y-86618551D01*
X83072098Y-87037824D01*
X81940000Y-87037824D01*
X81940000Y-85503347D01*
X83904952Y-85503347D01*
X85217000Y-86815395D01*
X86529048Y-85503347D01*
X86373038Y-85187786D01*
X85998255Y-84996980D01*
X85593449Y-84882956D01*
X85174176Y-84850098D01*
X84756549Y-84899666D01*
X84356617Y-85029757D01*
X84060962Y-85187786D01*
X83904952Y-85503347D01*
X81940000Y-85503347D01*
X81940000Y-82270777D01*
X145755000Y-82270777D01*
X145755000Y-82829223D01*
X145863948Y-83376939D01*
X146077656Y-83892876D01*
X146387912Y-84357207D01*
X146782793Y-84752088D01*
X147247124Y-85062344D01*
X147763061Y-85276052D01*
X148310777Y-85385000D01*
X148869223Y-85385000D01*
X149416939Y-85276052D01*
X149932876Y-85062344D01*
X150397207Y-84752088D01*
X150792088Y-84357207D01*
X151102344Y-83892876D01*
X151316052Y-83376939D01*
X151425000Y-82829223D01*
X151425000Y-82270777D01*
X151316052Y-81723061D01*
X151102344Y-81207124D01*
X150792088Y-80742793D01*
X150397207Y-80347912D01*
X149932876Y-80037656D01*
X149416939Y-79823948D01*
X148869223Y-79715000D01*
X148310777Y-79715000D01*
X147763061Y-79823948D01*
X147247124Y-80037656D01*
X146782793Y-80347912D01*
X146387912Y-80742793D01*
X146077656Y-81207124D01*
X145863948Y-81723061D01*
X145755000Y-82270777D01*
X81940000Y-82270777D01*
X81940000Y-76860000D01*
X180950000Y-76860000D01*
X180950001Y-147930000D01*
%TD*%
M02*
