%TF.GenerationSoftware,KiCad,Pcbnew,(5.1.6-0-10_14)*%
%TF.CreationDate,2021-05-07T14:06:44-07:00*%
%TF.ProjectId,LEDDriverFilter,4c454444-7269-4766-9572-46696c746572,rev?*%
%TF.SameCoordinates,Original*%
%TF.FileFunction,Legend,Top*%
%TF.FilePolarity,Positive*%
%FSLAX46Y46*%
G04 Gerber Fmt 4.6, Leading zero omitted, Abs format (unit mm)*
G04 Created by KiCad (PCBNEW (5.1.6-0-10_14)) date 2021-05-07 14:06:44*
%MOMM*%
%LPD*%
G01*
G04 APERTURE LIST*
%ADD10C,0.300000*%
%ADD11C,0.120000*%
%ADD12C,0.150000*%
G04 APERTURE END LIST*
D10*
X82904285Y-135058571D02*
X82904285Y-136130000D01*
X82832857Y-136344285D01*
X82690000Y-136487142D01*
X82475714Y-136558571D01*
X82332857Y-136558571D01*
X83832857Y-136558571D02*
X83690000Y-136487142D01*
X83618571Y-136415714D01*
X83547142Y-136272857D01*
X83547142Y-135844285D01*
X83618571Y-135701428D01*
X83690000Y-135630000D01*
X83832857Y-135558571D01*
X84047142Y-135558571D01*
X84190000Y-135630000D01*
X84261428Y-135701428D01*
X84332857Y-135844285D01*
X84332857Y-136272857D01*
X84261428Y-136415714D01*
X84190000Y-136487142D01*
X84047142Y-136558571D01*
X83832857Y-136558571D01*
X84975714Y-136558571D02*
X84975714Y-135558571D01*
X84975714Y-135844285D02*
X85047142Y-135701428D01*
X85118571Y-135630000D01*
X85261428Y-135558571D01*
X85404285Y-135558571D01*
X86547142Y-136558571D02*
X86547142Y-135058571D01*
X86547142Y-136487142D02*
X86404285Y-136558571D01*
X86118571Y-136558571D01*
X85975714Y-136487142D01*
X85904285Y-136415714D01*
X85832857Y-136272857D01*
X85832857Y-135844285D01*
X85904285Y-135701428D01*
X85975714Y-135630000D01*
X86118571Y-135558571D01*
X86404285Y-135558571D01*
X86547142Y-135630000D01*
X87904285Y-136558571D02*
X87904285Y-135772857D01*
X87832857Y-135630000D01*
X87690000Y-135558571D01*
X87404285Y-135558571D01*
X87261428Y-135630000D01*
X87904285Y-136487142D02*
X87761428Y-136558571D01*
X87404285Y-136558571D01*
X87261428Y-136487142D01*
X87190000Y-136344285D01*
X87190000Y-136201428D01*
X87261428Y-136058571D01*
X87404285Y-135987142D01*
X87761428Y-135987142D01*
X87904285Y-135915714D01*
X88618571Y-135558571D02*
X88618571Y-136558571D01*
X88618571Y-135701428D02*
X88690000Y-135630000D01*
X88832857Y-135558571D01*
X89047142Y-135558571D01*
X89190000Y-135630000D01*
X89261428Y-135772857D01*
X89261428Y-136558571D01*
X91118571Y-135772857D02*
X91618571Y-135772857D01*
X91832857Y-136558571D02*
X91118571Y-136558571D01*
X91118571Y-135058571D01*
X91832857Y-135058571D01*
X93118571Y-136558571D02*
X93118571Y-135058571D01*
X93118571Y-136487142D02*
X92975714Y-136558571D01*
X92690000Y-136558571D01*
X92547142Y-136487142D01*
X92475714Y-136415714D01*
X92404285Y-136272857D01*
X92404285Y-135844285D01*
X92475714Y-135701428D01*
X92547142Y-135630000D01*
X92690000Y-135558571D01*
X92975714Y-135558571D01*
X93118571Y-135630000D01*
X93832857Y-136558571D02*
X93832857Y-135558571D01*
X93832857Y-135701428D02*
X93904285Y-135630000D01*
X94047142Y-135558571D01*
X94261428Y-135558571D01*
X94404285Y-135630000D01*
X94475714Y-135772857D01*
X94475714Y-136558571D01*
X94475714Y-135772857D02*
X94547142Y-135630000D01*
X94690000Y-135558571D01*
X94904285Y-135558571D01*
X95047142Y-135630000D01*
X95118571Y-135772857D01*
X95118571Y-136558571D01*
X96475714Y-135558571D02*
X96475714Y-136558571D01*
X95832857Y-135558571D02*
X95832857Y-136344285D01*
X95904285Y-136487142D01*
X96047142Y-136558571D01*
X96261428Y-136558571D01*
X96404285Y-136487142D01*
X96475714Y-136415714D01*
X97190000Y-135558571D02*
X97190000Y-136558571D01*
X97190000Y-135701428D02*
X97261428Y-135630000D01*
X97404285Y-135558571D01*
X97618571Y-135558571D01*
X97761428Y-135630000D01*
X97832857Y-135772857D01*
X97832857Y-136558571D01*
X99190000Y-136558571D02*
X99190000Y-135058571D01*
X99190000Y-136487142D02*
X99047142Y-136558571D01*
X98761428Y-136558571D01*
X98618571Y-136487142D01*
X98547142Y-136415714D01*
X98475714Y-136272857D01*
X98475714Y-135844285D01*
X98547142Y-135701428D01*
X98618571Y-135630000D01*
X98761428Y-135558571D01*
X99047142Y-135558571D01*
X99190000Y-135630000D01*
X99832857Y-136487142D02*
X99975714Y-136558571D01*
X100261428Y-136558571D01*
X100404285Y-136487142D01*
X100475714Y-136344285D01*
X100475714Y-136272857D01*
X100404285Y-136130000D01*
X100261428Y-136058571D01*
X100047142Y-136058571D01*
X99904285Y-135987142D01*
X99832857Y-135844285D01*
X99832857Y-135772857D01*
X99904285Y-135630000D01*
X100047142Y-135558571D01*
X100261428Y-135558571D01*
X100404285Y-135630000D01*
X84190000Y-139108571D02*
X83332857Y-139108571D01*
X83761428Y-139108571D02*
X83761428Y-137608571D01*
X83618571Y-137822857D01*
X83475714Y-137965714D01*
X83332857Y-138037142D01*
X84832857Y-138965714D02*
X84904285Y-139037142D01*
X84832857Y-139108571D01*
X84761428Y-139037142D01*
X84832857Y-138965714D01*
X84832857Y-139108571D01*
X85404285Y-137608571D02*
X86332857Y-137608571D01*
X85832857Y-138180000D01*
X86047142Y-138180000D01*
X86190000Y-138251428D01*
X86261428Y-138322857D01*
X86332857Y-138465714D01*
X86332857Y-138822857D01*
X86261428Y-138965714D01*
X86190000Y-139037142D01*
X86047142Y-139108571D01*
X85618571Y-139108571D01*
X85475714Y-139037142D01*
X85404285Y-138965714D01*
X86904285Y-138680000D02*
X87618571Y-138680000D01*
X86761428Y-139108571D02*
X87261428Y-137608571D01*
X87761428Y-139108571D01*
X90261428Y-139108571D02*
X89761428Y-138394285D01*
X89404285Y-139108571D02*
X89404285Y-137608571D01*
X89975714Y-137608571D01*
X90118571Y-137680000D01*
X90190000Y-137751428D01*
X90261428Y-137894285D01*
X90261428Y-138108571D01*
X90190000Y-138251428D01*
X90118571Y-138322857D01*
X89975714Y-138394285D01*
X89404285Y-138394285D01*
X91618571Y-139108571D02*
X90904285Y-139108571D01*
X90904285Y-137608571D01*
X92975714Y-138965714D02*
X92904285Y-139037142D01*
X92690000Y-139108571D01*
X92547142Y-139108571D01*
X92332857Y-139037142D01*
X92190000Y-138894285D01*
X92118571Y-138751428D01*
X92047142Y-138465714D01*
X92047142Y-138251428D01*
X92118571Y-137965714D01*
X92190000Y-137822857D01*
X92332857Y-137680000D01*
X92547142Y-137608571D01*
X92690000Y-137608571D01*
X92904285Y-137680000D01*
X92975714Y-137751428D01*
X94547142Y-138108571D02*
X95118571Y-138108571D01*
X94761428Y-139108571D02*
X94761428Y-137822857D01*
X94832857Y-137680000D01*
X94975714Y-137608571D01*
X95118571Y-137608571D01*
X95618571Y-139108571D02*
X95618571Y-138108571D01*
X95618571Y-137608571D02*
X95547142Y-137680000D01*
X95618571Y-137751428D01*
X95690000Y-137680000D01*
X95618571Y-137608571D01*
X95618571Y-137751428D01*
X96547142Y-139108571D02*
X96404285Y-139037142D01*
X96332857Y-138894285D01*
X96332857Y-137608571D01*
X96904285Y-138108571D02*
X97475714Y-138108571D01*
X97118571Y-137608571D02*
X97118571Y-138894285D01*
X97190000Y-139037142D01*
X97332857Y-139108571D01*
X97475714Y-139108571D01*
X98547142Y-139037142D02*
X98404285Y-139108571D01*
X98118571Y-139108571D01*
X97975714Y-139037142D01*
X97904285Y-138894285D01*
X97904285Y-138322857D01*
X97975714Y-138180000D01*
X98118571Y-138108571D01*
X98404285Y-138108571D01*
X98547142Y-138180000D01*
X98618571Y-138322857D01*
X98618571Y-138465714D01*
X97904285Y-138608571D01*
X99261428Y-139108571D02*
X99261428Y-138108571D01*
X99261428Y-138394285D02*
X99332857Y-138251428D01*
X99404285Y-138180000D01*
X99547142Y-138108571D01*
X99690000Y-138108571D01*
X90368571Y-140658571D02*
X90725714Y-141658571D01*
X91082857Y-140658571D01*
X92440000Y-141658571D02*
X91582857Y-141658571D01*
X92011428Y-141658571D02*
X92011428Y-140158571D01*
X91868571Y-140372857D01*
X91725714Y-140515714D01*
X91582857Y-140587142D01*
D11*
%TO.C,C1*%
X131285000Y-94060000D02*
G75*
G03*
X131285000Y-94060000I-17620000J0D01*
G01*
X96085000Y-94060000D02*
X131245000Y-94060000D01*
X96085000Y-94020000D02*
X131245000Y-94020000D01*
X96085000Y-93980000D02*
X131245000Y-93980000D01*
X96085000Y-93940000D02*
X131245000Y-93940000D01*
X96085000Y-93900000D02*
X131245000Y-93900000D01*
X96086000Y-93860000D02*
X131244000Y-93860000D01*
X96086000Y-93820000D02*
X131244000Y-93820000D01*
X96087000Y-93780000D02*
X131243000Y-93780000D01*
X96087000Y-93740000D02*
X131243000Y-93740000D01*
X96088000Y-93700000D02*
X131242000Y-93700000D01*
X96089000Y-93660000D02*
X131241000Y-93660000D01*
X96090000Y-93620000D02*
X131240000Y-93620000D01*
X96091000Y-93580000D02*
X131239000Y-93580000D01*
X96092000Y-93540000D02*
X131238000Y-93540000D01*
X96093000Y-93500000D02*
X131237000Y-93500000D01*
X96095000Y-93460000D02*
X131235000Y-93460000D01*
X96096000Y-93420000D02*
X131234000Y-93420000D01*
X96098000Y-93380000D02*
X131232000Y-93380000D01*
X96099000Y-93339000D02*
X131231000Y-93339000D01*
X96101000Y-93299000D02*
X131229000Y-93299000D01*
X96103000Y-93259000D02*
X131227000Y-93259000D01*
X96105000Y-93219000D02*
X131225000Y-93219000D01*
X96106000Y-93179000D02*
X131224000Y-93179000D01*
X96109000Y-93139000D02*
X131221000Y-93139000D01*
X96111000Y-93099000D02*
X131219000Y-93099000D01*
X96113000Y-93059000D02*
X131217000Y-93059000D01*
X96115000Y-93019000D02*
X131215000Y-93019000D01*
X96118000Y-92979000D02*
X131212000Y-92979000D01*
X96120000Y-92939000D02*
X131210000Y-92939000D01*
X96123000Y-92899000D02*
X131207000Y-92899000D01*
X96125000Y-92859000D02*
X131205000Y-92859000D01*
X96128000Y-92819000D02*
X131202000Y-92819000D01*
X96131000Y-92779000D02*
X131199000Y-92779000D01*
X96134000Y-92739000D02*
X131196000Y-92739000D01*
X96137000Y-92699000D02*
X131193000Y-92699000D01*
X96140000Y-92659000D02*
X131190000Y-92659000D01*
X96143000Y-92619000D02*
X131187000Y-92619000D01*
X96147000Y-92579000D02*
X131183000Y-92579000D01*
X96150000Y-92539000D02*
X131180000Y-92539000D01*
X96154000Y-92499000D02*
X131176000Y-92499000D01*
X96157000Y-92459000D02*
X131173000Y-92459000D01*
X96161000Y-92419000D02*
X131169000Y-92419000D01*
X96165000Y-92379000D02*
X131165000Y-92379000D01*
X96169000Y-92339000D02*
X131161000Y-92339000D01*
X96173000Y-92299000D02*
X131157000Y-92299000D01*
X96177000Y-92259000D02*
X131153000Y-92259000D01*
X96181000Y-92219000D02*
X131149000Y-92219000D01*
X96185000Y-92179000D02*
X131145000Y-92179000D01*
X96189000Y-92139000D02*
X131141000Y-92139000D01*
X96194000Y-92099000D02*
X131136000Y-92099000D01*
X96198000Y-92059000D02*
X131132000Y-92059000D01*
X96203000Y-92019000D02*
X131127000Y-92019000D01*
X96208000Y-91979000D02*
X131122000Y-91979000D01*
X96213000Y-91939000D02*
X131117000Y-91939000D01*
X96217000Y-91899000D02*
X131113000Y-91899000D01*
X96222000Y-91859000D02*
X131108000Y-91859000D01*
X96227000Y-91819000D02*
X131103000Y-91819000D01*
X96233000Y-91779000D02*
X131097000Y-91779000D01*
X96238000Y-91739000D02*
X131092000Y-91739000D01*
X96243000Y-91699000D02*
X131087000Y-91699000D01*
X96249000Y-91659000D02*
X131081000Y-91659000D01*
X96254000Y-91619000D02*
X131076000Y-91619000D01*
X96260000Y-91579000D02*
X131070000Y-91579000D01*
X96266000Y-91539000D02*
X131064000Y-91539000D01*
X96271000Y-91499000D02*
X131059000Y-91499000D01*
X96277000Y-91459000D02*
X131053000Y-91459000D01*
X96283000Y-91419000D02*
X131047000Y-91419000D01*
X96290000Y-91379000D02*
X131040000Y-91379000D01*
X96296000Y-91339000D02*
X131034000Y-91339000D01*
X96302000Y-91299000D02*
X111425000Y-91299000D01*
X115905000Y-91299000D02*
X131028000Y-91299000D01*
X96308000Y-91259000D02*
X111425000Y-91259000D01*
X115905000Y-91259000D02*
X131022000Y-91259000D01*
X96315000Y-91219000D02*
X111425000Y-91219000D01*
X115905000Y-91219000D02*
X131015000Y-91219000D01*
X96321000Y-91179000D02*
X111425000Y-91179000D01*
X115905000Y-91179000D02*
X131009000Y-91179000D01*
X96328000Y-91139000D02*
X111425000Y-91139000D01*
X115905000Y-91139000D02*
X131002000Y-91139000D01*
X96335000Y-91099000D02*
X111425000Y-91099000D01*
X115905000Y-91099000D02*
X130995000Y-91099000D01*
X96342000Y-91059000D02*
X111425000Y-91059000D01*
X115905000Y-91059000D02*
X130988000Y-91059000D01*
X96349000Y-91019000D02*
X111425000Y-91019000D01*
X115905000Y-91019000D02*
X130981000Y-91019000D01*
X96356000Y-90979000D02*
X111425000Y-90979000D01*
X115905000Y-90979000D02*
X130974000Y-90979000D01*
X96363000Y-90939000D02*
X111425000Y-90939000D01*
X115905000Y-90939000D02*
X130967000Y-90939000D01*
X96370000Y-90899000D02*
X111425000Y-90899000D01*
X115905000Y-90899000D02*
X130960000Y-90899000D01*
X96378000Y-90859000D02*
X111425000Y-90859000D01*
X115905000Y-90859000D02*
X130952000Y-90859000D01*
X96385000Y-90819000D02*
X111425000Y-90819000D01*
X115905000Y-90819000D02*
X130945000Y-90819000D01*
X96392000Y-90779000D02*
X111425000Y-90779000D01*
X115905000Y-90779000D02*
X130938000Y-90779000D01*
X96400000Y-90739000D02*
X111425000Y-90739000D01*
X115905000Y-90739000D02*
X130930000Y-90739000D01*
X96408000Y-90699000D02*
X111425000Y-90699000D01*
X115905000Y-90699000D02*
X130922000Y-90699000D01*
X96416000Y-90659000D02*
X111425000Y-90659000D01*
X115905000Y-90659000D02*
X130914000Y-90659000D01*
X96424000Y-90619000D02*
X111425000Y-90619000D01*
X115905000Y-90619000D02*
X130906000Y-90619000D01*
X96432000Y-90579000D02*
X111425000Y-90579000D01*
X115905000Y-90579000D02*
X130898000Y-90579000D01*
X96440000Y-90539000D02*
X111425000Y-90539000D01*
X115905000Y-90539000D02*
X130890000Y-90539000D01*
X96448000Y-90499000D02*
X111425000Y-90499000D01*
X115905000Y-90499000D02*
X130882000Y-90499000D01*
X96456000Y-90459000D02*
X111425000Y-90459000D01*
X115905000Y-90459000D02*
X130874000Y-90459000D01*
X96465000Y-90419000D02*
X111425000Y-90419000D01*
X115905000Y-90419000D02*
X130865000Y-90419000D01*
X96473000Y-90379000D02*
X111425000Y-90379000D01*
X115905000Y-90379000D02*
X130857000Y-90379000D01*
X96482000Y-90339000D02*
X111425000Y-90339000D01*
X115905000Y-90339000D02*
X130848000Y-90339000D01*
X96490000Y-90299000D02*
X111425000Y-90299000D01*
X115905000Y-90299000D02*
X130840000Y-90299000D01*
X96499000Y-90259000D02*
X111425000Y-90259000D01*
X115905000Y-90259000D02*
X130831000Y-90259000D01*
X96508000Y-90219000D02*
X111425000Y-90219000D01*
X115905000Y-90219000D02*
X130822000Y-90219000D01*
X96517000Y-90179000D02*
X111425000Y-90179000D01*
X115905000Y-90179000D02*
X130813000Y-90179000D01*
X96526000Y-90139000D02*
X111425000Y-90139000D01*
X115905000Y-90139000D02*
X130804000Y-90139000D01*
X96535000Y-90099000D02*
X111425000Y-90099000D01*
X115905000Y-90099000D02*
X130795000Y-90099000D01*
X96545000Y-90059000D02*
X111425000Y-90059000D01*
X115905000Y-90059000D02*
X130785000Y-90059000D01*
X96554000Y-90019000D02*
X111425000Y-90019000D01*
X115905000Y-90019000D02*
X130776000Y-90019000D01*
X96563000Y-89979000D02*
X111425000Y-89979000D01*
X115905000Y-89979000D02*
X130767000Y-89979000D01*
X96573000Y-89939000D02*
X111425000Y-89939000D01*
X115905000Y-89939000D02*
X130757000Y-89939000D01*
X96583000Y-89899000D02*
X111425000Y-89899000D01*
X115905000Y-89899000D02*
X130747000Y-89899000D01*
X96592000Y-89859000D02*
X111425000Y-89859000D01*
X115905000Y-89859000D02*
X130738000Y-89859000D01*
X96602000Y-89819000D02*
X111425000Y-89819000D01*
X115905000Y-89819000D02*
X130728000Y-89819000D01*
X96612000Y-89779000D02*
X111425000Y-89779000D01*
X115905000Y-89779000D02*
X130718000Y-89779000D01*
X96622000Y-89739000D02*
X111425000Y-89739000D01*
X115905000Y-89739000D02*
X130708000Y-89739000D01*
X96632000Y-89699000D02*
X111425000Y-89699000D01*
X115905000Y-89699000D02*
X130698000Y-89699000D01*
X96643000Y-89659000D02*
X111425000Y-89659000D01*
X115905000Y-89659000D02*
X130687000Y-89659000D01*
X96653000Y-89619000D02*
X111425000Y-89619000D01*
X115905000Y-89619000D02*
X130677000Y-89619000D01*
X96664000Y-89579000D02*
X111425000Y-89579000D01*
X115905000Y-89579000D02*
X130666000Y-89579000D01*
X96674000Y-89539000D02*
X111425000Y-89539000D01*
X115905000Y-89539000D02*
X130656000Y-89539000D01*
X96685000Y-89499000D02*
X111425000Y-89499000D01*
X115905000Y-89499000D02*
X130645000Y-89499000D01*
X96696000Y-89459000D02*
X111425000Y-89459000D01*
X115905000Y-89459000D02*
X130634000Y-89459000D01*
X96706000Y-89419000D02*
X111425000Y-89419000D01*
X115905000Y-89419000D02*
X130624000Y-89419000D01*
X96717000Y-89379000D02*
X111425000Y-89379000D01*
X115905000Y-89379000D02*
X130613000Y-89379000D01*
X96728000Y-89339000D02*
X111425000Y-89339000D01*
X115905000Y-89339000D02*
X130602000Y-89339000D01*
X96740000Y-89299000D02*
X111425000Y-89299000D01*
X115905000Y-89299000D02*
X130590000Y-89299000D01*
X96751000Y-89259000D02*
X111425000Y-89259000D01*
X115905000Y-89259000D02*
X130579000Y-89259000D01*
X96762000Y-89219000D02*
X111425000Y-89219000D01*
X115905000Y-89219000D02*
X130568000Y-89219000D01*
X96774000Y-89179000D02*
X111425000Y-89179000D01*
X115905000Y-89179000D02*
X130556000Y-89179000D01*
X96785000Y-89139000D02*
X111425000Y-89139000D01*
X115905000Y-89139000D02*
X130545000Y-89139000D01*
X96797000Y-89099000D02*
X111425000Y-89099000D01*
X115905000Y-89099000D02*
X130533000Y-89099000D01*
X96809000Y-89059000D02*
X111425000Y-89059000D01*
X115905000Y-89059000D02*
X130521000Y-89059000D01*
X96821000Y-89019000D02*
X111425000Y-89019000D01*
X115905000Y-89019000D02*
X130509000Y-89019000D01*
X96833000Y-88979000D02*
X111425000Y-88979000D01*
X115905000Y-88979000D02*
X130497000Y-88979000D01*
X96845000Y-88939000D02*
X111425000Y-88939000D01*
X115905000Y-88939000D02*
X130485000Y-88939000D01*
X96857000Y-88899000D02*
X111425000Y-88899000D01*
X115905000Y-88899000D02*
X130473000Y-88899000D01*
X96869000Y-88859000D02*
X111425000Y-88859000D01*
X115905000Y-88859000D02*
X130461000Y-88859000D01*
X96882000Y-88819000D02*
X111425000Y-88819000D01*
X115905000Y-88819000D02*
X130448000Y-88819000D01*
X96894000Y-88779000D02*
X111425000Y-88779000D01*
X115905000Y-88779000D02*
X130436000Y-88779000D01*
X96907000Y-88739000D02*
X111425000Y-88739000D01*
X115905000Y-88739000D02*
X130423000Y-88739000D01*
X96920000Y-88699000D02*
X111425000Y-88699000D01*
X115905000Y-88699000D02*
X130410000Y-88699000D01*
X96932000Y-88659000D02*
X111425000Y-88659000D01*
X115905000Y-88659000D02*
X130398000Y-88659000D01*
X96945000Y-88619000D02*
X111425000Y-88619000D01*
X115905000Y-88619000D02*
X130385000Y-88619000D01*
X96958000Y-88579000D02*
X111425000Y-88579000D01*
X115905000Y-88579000D02*
X130372000Y-88579000D01*
X96971000Y-88539000D02*
X111425000Y-88539000D01*
X115905000Y-88539000D02*
X130359000Y-88539000D01*
X96985000Y-88499000D02*
X111425000Y-88499000D01*
X115905000Y-88499000D02*
X130345000Y-88499000D01*
X96998000Y-88459000D02*
X111425000Y-88459000D01*
X115905000Y-88459000D02*
X130332000Y-88459000D01*
X97012000Y-88419000D02*
X111425000Y-88419000D01*
X115905000Y-88419000D02*
X130318000Y-88419000D01*
X97025000Y-88379000D02*
X111425000Y-88379000D01*
X115905000Y-88379000D02*
X130305000Y-88379000D01*
X97039000Y-88339000D02*
X111425000Y-88339000D01*
X115905000Y-88339000D02*
X130291000Y-88339000D01*
X97053000Y-88299000D02*
X111425000Y-88299000D01*
X115905000Y-88299000D02*
X130277000Y-88299000D01*
X97066000Y-88259000D02*
X111425000Y-88259000D01*
X115905000Y-88259000D02*
X130264000Y-88259000D01*
X97080000Y-88219000D02*
X111425000Y-88219000D01*
X115905000Y-88219000D02*
X130250000Y-88219000D01*
X97095000Y-88179000D02*
X111425000Y-88179000D01*
X115905000Y-88179000D02*
X130235000Y-88179000D01*
X97109000Y-88139000D02*
X111425000Y-88139000D01*
X115905000Y-88139000D02*
X130221000Y-88139000D01*
X97123000Y-88099000D02*
X111425000Y-88099000D01*
X115905000Y-88099000D02*
X130207000Y-88099000D01*
X97138000Y-88059000D02*
X111425000Y-88059000D01*
X115905000Y-88059000D02*
X130192000Y-88059000D01*
X97152000Y-88019000D02*
X111425000Y-88019000D01*
X115905000Y-88019000D02*
X130178000Y-88019000D01*
X97167000Y-87979000D02*
X111425000Y-87979000D01*
X115905000Y-87979000D02*
X130163000Y-87979000D01*
X97181000Y-87939000D02*
X111425000Y-87939000D01*
X115905000Y-87939000D02*
X130149000Y-87939000D01*
X97196000Y-87899000D02*
X111425000Y-87899000D01*
X115905000Y-87899000D02*
X130134000Y-87899000D01*
X97211000Y-87859000D02*
X111425000Y-87859000D01*
X115905000Y-87859000D02*
X130119000Y-87859000D01*
X97226000Y-87819000D02*
X111425000Y-87819000D01*
X115905000Y-87819000D02*
X130104000Y-87819000D01*
X97242000Y-87779000D02*
X111425000Y-87779000D01*
X115905000Y-87779000D02*
X130088000Y-87779000D01*
X97257000Y-87739000D02*
X111425000Y-87739000D01*
X115905000Y-87739000D02*
X130073000Y-87739000D01*
X97272000Y-87699000D02*
X111425000Y-87699000D01*
X115905000Y-87699000D02*
X130058000Y-87699000D01*
X97288000Y-87659000D02*
X111425000Y-87659000D01*
X115905000Y-87659000D02*
X130042000Y-87659000D01*
X97304000Y-87619000D02*
X111425000Y-87619000D01*
X115905000Y-87619000D02*
X130026000Y-87619000D01*
X97319000Y-87579000D02*
X111425000Y-87579000D01*
X115905000Y-87579000D02*
X130011000Y-87579000D01*
X97335000Y-87539000D02*
X111425000Y-87539000D01*
X115905000Y-87539000D02*
X129995000Y-87539000D01*
X97351000Y-87499000D02*
X111425000Y-87499000D01*
X115905000Y-87499000D02*
X129979000Y-87499000D01*
X97367000Y-87459000D02*
X111425000Y-87459000D01*
X115905000Y-87459000D02*
X129963000Y-87459000D01*
X97384000Y-87419000D02*
X111425000Y-87419000D01*
X115905000Y-87419000D02*
X129946000Y-87419000D01*
X97400000Y-87379000D02*
X111425000Y-87379000D01*
X115905000Y-87379000D02*
X129930000Y-87379000D01*
X97416000Y-87339000D02*
X111425000Y-87339000D01*
X115905000Y-87339000D02*
X129914000Y-87339000D01*
X97433000Y-87299000D02*
X111425000Y-87299000D01*
X115905000Y-87299000D02*
X129897000Y-87299000D01*
X97450000Y-87259000D02*
X111425000Y-87259000D01*
X115905000Y-87259000D02*
X129880000Y-87259000D01*
X97466000Y-87219000D02*
X111425000Y-87219000D01*
X115905000Y-87219000D02*
X129864000Y-87219000D01*
X97483000Y-87179000D02*
X111425000Y-87179000D01*
X115905000Y-87179000D02*
X129847000Y-87179000D01*
X97500000Y-87139000D02*
X111425000Y-87139000D01*
X115905000Y-87139000D02*
X129830000Y-87139000D01*
X97517000Y-87099000D02*
X111425000Y-87099000D01*
X115905000Y-87099000D02*
X129813000Y-87099000D01*
X97535000Y-87059000D02*
X111425000Y-87059000D01*
X115905000Y-87059000D02*
X129795000Y-87059000D01*
X97552000Y-87019000D02*
X111425000Y-87019000D01*
X115905000Y-87019000D02*
X129778000Y-87019000D01*
X97570000Y-86979000D02*
X111425000Y-86979000D01*
X115905000Y-86979000D02*
X129760000Y-86979000D01*
X97587000Y-86939000D02*
X111425000Y-86939000D01*
X115905000Y-86939000D02*
X129743000Y-86939000D01*
X97605000Y-86899000D02*
X111425000Y-86899000D01*
X115905000Y-86899000D02*
X129725000Y-86899000D01*
X97623000Y-86859000D02*
X111425000Y-86859000D01*
X115905000Y-86859000D02*
X129707000Y-86859000D01*
X97641000Y-86819000D02*
X129689000Y-86819000D01*
X97659000Y-86779000D02*
X129671000Y-86779000D01*
X97677000Y-86739000D02*
X129653000Y-86739000D01*
X97695000Y-86699000D02*
X129635000Y-86699000D01*
X97714000Y-86659000D02*
X129616000Y-86659000D01*
X97732000Y-86619000D02*
X129598000Y-86619000D01*
X97751000Y-86579000D02*
X129579000Y-86579000D01*
X97770000Y-86539000D02*
X129560000Y-86539000D01*
X97789000Y-86499000D02*
X129541000Y-86499000D01*
X97808000Y-86459000D02*
X129522000Y-86459000D01*
X97827000Y-86419000D02*
X129503000Y-86419000D01*
X97846000Y-86379000D02*
X129484000Y-86379000D01*
X97866000Y-86339000D02*
X129464000Y-86339000D01*
X97885000Y-86299000D02*
X129445000Y-86299000D01*
X97905000Y-86259000D02*
X129425000Y-86259000D01*
X97925000Y-86219000D02*
X129405000Y-86219000D01*
X97945000Y-86179000D02*
X129385000Y-86179000D01*
X97965000Y-86139000D02*
X129365000Y-86139000D01*
X97985000Y-86099000D02*
X129345000Y-86099000D01*
X98005000Y-86059000D02*
X129325000Y-86059000D01*
X98026000Y-86019000D02*
X129304000Y-86019000D01*
X98046000Y-85979000D02*
X129284000Y-85979000D01*
X98067000Y-85939000D02*
X129263000Y-85939000D01*
X98088000Y-85899000D02*
X129242000Y-85899000D01*
X98109000Y-85860000D02*
X129221000Y-85860000D01*
X98130000Y-85820000D02*
X129200000Y-85820000D01*
X98151000Y-85780000D02*
X129179000Y-85780000D01*
X98173000Y-85740000D02*
X129157000Y-85740000D01*
X98194000Y-85700000D02*
X129136000Y-85700000D01*
X98216000Y-85660000D02*
X129114000Y-85660000D01*
X98237000Y-85620000D02*
X129093000Y-85620000D01*
X98259000Y-85580000D02*
X129071000Y-85580000D01*
X98281000Y-85540000D02*
X129049000Y-85540000D01*
X98304000Y-85500000D02*
X129026000Y-85500000D01*
X98326000Y-85460000D02*
X129004000Y-85460000D01*
X98348000Y-85420000D02*
X128982000Y-85420000D01*
X98371000Y-85380000D02*
X128959000Y-85380000D01*
X98394000Y-85340000D02*
X128936000Y-85340000D01*
X98416000Y-85300000D02*
X128914000Y-85300000D01*
X98439000Y-85260000D02*
X128891000Y-85260000D01*
X98462000Y-85220000D02*
X128868000Y-85220000D01*
X98486000Y-85180000D02*
X128844000Y-85180000D01*
X98509000Y-85140000D02*
X128821000Y-85140000D01*
X98533000Y-85100000D02*
X128797000Y-85100000D01*
X98556000Y-85060000D02*
X128774000Y-85060000D01*
X98580000Y-85020000D02*
X128750000Y-85020000D01*
X98604000Y-84980000D02*
X128726000Y-84980000D01*
X98628000Y-84940000D02*
X128702000Y-84940000D01*
X98653000Y-84900000D02*
X128677000Y-84900000D01*
X98677000Y-84860000D02*
X128653000Y-84860000D01*
X98702000Y-84820000D02*
X128628000Y-84820000D01*
X98726000Y-84780000D02*
X128604000Y-84780000D01*
X98751000Y-84740000D02*
X128579000Y-84740000D01*
X98776000Y-84700000D02*
X128554000Y-84700000D01*
X98801000Y-84660000D02*
X128529000Y-84660000D01*
X98827000Y-84620000D02*
X128503000Y-84620000D01*
X98852000Y-84580000D02*
X128478000Y-84580000D01*
X98878000Y-84540000D02*
X128452000Y-84540000D01*
X98903000Y-84500000D02*
X128427000Y-84500000D01*
X98929000Y-84460000D02*
X128401000Y-84460000D01*
X98955000Y-84420000D02*
X128375000Y-84420000D01*
X98982000Y-84380000D02*
X128348000Y-84380000D01*
X99008000Y-84340000D02*
X128322000Y-84340000D01*
X99035000Y-84300000D02*
X128295000Y-84300000D01*
X99061000Y-84260000D02*
X128269000Y-84260000D01*
X99088000Y-84220000D02*
X128242000Y-84220000D01*
X99115000Y-84180000D02*
X128215000Y-84180000D01*
X99142000Y-84140000D02*
X128188000Y-84140000D01*
X99170000Y-84100000D02*
X128160000Y-84100000D01*
X99197000Y-84060000D02*
X128133000Y-84060000D01*
X99225000Y-84020000D02*
X128105000Y-84020000D01*
X99253000Y-83980000D02*
X128077000Y-83980000D01*
X99281000Y-83940000D02*
X128049000Y-83940000D01*
X99309000Y-83900000D02*
X128021000Y-83900000D01*
X99337000Y-83860000D02*
X127993000Y-83860000D01*
X99366000Y-83820000D02*
X127964000Y-83820000D01*
X99394000Y-83780000D02*
X127936000Y-83780000D01*
X99423000Y-83740000D02*
X127907000Y-83740000D01*
X99452000Y-83700000D02*
X127878000Y-83700000D01*
X99481000Y-83660000D02*
X127849000Y-83660000D01*
X99510000Y-83620000D02*
X127820000Y-83620000D01*
X99540000Y-83580000D02*
X127790000Y-83580000D01*
X99570000Y-83540000D02*
X127760000Y-83540000D01*
X99600000Y-83500000D02*
X127730000Y-83500000D01*
X99630000Y-83460000D02*
X127700000Y-83460000D01*
X99660000Y-83420000D02*
X127670000Y-83420000D01*
X99690000Y-83380000D02*
X127640000Y-83380000D01*
X99721000Y-83340000D02*
X127609000Y-83340000D01*
X99751000Y-83300000D02*
X127579000Y-83300000D01*
X99782000Y-83260000D02*
X127548000Y-83260000D01*
X99814000Y-83220000D02*
X127516000Y-83220000D01*
X99845000Y-83180000D02*
X127485000Y-83180000D01*
X99876000Y-83140000D02*
X127454000Y-83140000D01*
X99908000Y-83100000D02*
X127422000Y-83100000D01*
X99940000Y-83060000D02*
X127390000Y-83060000D01*
X99972000Y-83020000D02*
X127358000Y-83020000D01*
X100004000Y-82980000D02*
X127326000Y-82980000D01*
X100037000Y-82940000D02*
X127293000Y-82940000D01*
X100069000Y-82900000D02*
X127261000Y-82900000D01*
X100102000Y-82860000D02*
X127228000Y-82860000D01*
X100135000Y-82820000D02*
X127195000Y-82820000D01*
X100168000Y-82780000D02*
X127162000Y-82780000D01*
X100202000Y-82740000D02*
X127128000Y-82740000D01*
X100235000Y-82700000D02*
X127095000Y-82700000D01*
X100269000Y-82660000D02*
X127061000Y-82660000D01*
X100303000Y-82620000D02*
X127027000Y-82620000D01*
X100338000Y-82580000D02*
X126992000Y-82580000D01*
X100372000Y-82540000D02*
X126958000Y-82540000D01*
X100407000Y-82500000D02*
X126923000Y-82500000D01*
X100442000Y-82460000D02*
X126888000Y-82460000D01*
X100477000Y-82420000D02*
X126853000Y-82420000D01*
X100512000Y-82380000D02*
X126818000Y-82380000D01*
X100548000Y-82340000D02*
X126782000Y-82340000D01*
X100583000Y-82300000D02*
X126747000Y-82300000D01*
X100619000Y-82260000D02*
X126711000Y-82260000D01*
X100655000Y-82220000D02*
X126675000Y-82220000D01*
X100692000Y-82180000D02*
X126638000Y-82180000D01*
X100728000Y-82140000D02*
X126602000Y-82140000D01*
X100765000Y-82100000D02*
X126565000Y-82100000D01*
X100802000Y-82060000D02*
X126528000Y-82060000D01*
X100840000Y-82020000D02*
X126490000Y-82020000D01*
X100877000Y-81980000D02*
X126453000Y-81980000D01*
X100915000Y-81940000D02*
X126415000Y-81940000D01*
X100953000Y-81900000D02*
X126377000Y-81900000D01*
X100991000Y-81860000D02*
X126339000Y-81860000D01*
X101030000Y-81820000D02*
X126300000Y-81820000D01*
X101069000Y-81780000D02*
X126261000Y-81780000D01*
X101108000Y-81740000D02*
X126222000Y-81740000D01*
X101147000Y-81700000D02*
X126183000Y-81700000D01*
X101186000Y-81660000D02*
X126144000Y-81660000D01*
X101226000Y-81620000D02*
X126104000Y-81620000D01*
X101266000Y-81580000D02*
X126064000Y-81580000D01*
X101306000Y-81540000D02*
X126024000Y-81540000D01*
X101347000Y-81500000D02*
X125983000Y-81500000D01*
X101388000Y-81460000D02*
X125942000Y-81460000D01*
X101429000Y-81420000D02*
X125901000Y-81420000D01*
X101470000Y-81380000D02*
X125860000Y-81380000D01*
X101512000Y-81340000D02*
X125818000Y-81340000D01*
X101554000Y-81300000D02*
X125776000Y-81300000D01*
X101596000Y-81260000D02*
X125734000Y-81260000D01*
X101638000Y-81220000D02*
X125692000Y-81220000D01*
X101681000Y-81180000D02*
X125649000Y-81180000D01*
X101724000Y-81140000D02*
X125606000Y-81140000D01*
X101767000Y-81100000D02*
X125563000Y-81100000D01*
X101811000Y-81060000D02*
X125519000Y-81060000D01*
X101854000Y-81020000D02*
X125476000Y-81020000D01*
X101899000Y-80980000D02*
X125431000Y-80980000D01*
X101943000Y-80940000D02*
X125387000Y-80940000D01*
X101988000Y-80900000D02*
X125342000Y-80900000D01*
X102033000Y-80860000D02*
X125297000Y-80860000D01*
X102078000Y-80820000D02*
X125252000Y-80820000D01*
X102124000Y-80780000D02*
X125206000Y-80780000D01*
X102170000Y-80740000D02*
X125160000Y-80740000D01*
X102216000Y-80700000D02*
X125114000Y-80700000D01*
X102263000Y-80660000D02*
X125067000Y-80660000D01*
X102310000Y-80620000D02*
X125020000Y-80620000D01*
X102358000Y-80580000D02*
X124972000Y-80580000D01*
X102405000Y-80540000D02*
X124925000Y-80540000D01*
X102453000Y-80500000D02*
X124877000Y-80500000D01*
X102502000Y-80460000D02*
X124828000Y-80460000D01*
X102550000Y-80420000D02*
X124780000Y-80420000D01*
X102599000Y-80380000D02*
X124731000Y-80380000D01*
X102649000Y-80340000D02*
X124681000Y-80340000D01*
X102699000Y-80300000D02*
X124631000Y-80300000D01*
X102749000Y-80260000D02*
X124581000Y-80260000D01*
X102800000Y-80220000D02*
X124530000Y-80220000D01*
X102850000Y-80180000D02*
X124480000Y-80180000D01*
X102902000Y-80140000D02*
X124428000Y-80140000D01*
X102954000Y-80100000D02*
X124376000Y-80100000D01*
X103006000Y-80060000D02*
X124324000Y-80060000D01*
X103058000Y-80020000D02*
X124272000Y-80020000D01*
X103111000Y-79980000D02*
X124219000Y-79980000D01*
X103165000Y-79940000D02*
X124165000Y-79940000D01*
X103218000Y-79900000D02*
X124112000Y-79900000D01*
X103273000Y-79860000D02*
X124057000Y-79860000D01*
X103327000Y-79820000D02*
X124003000Y-79820000D01*
X103382000Y-79780000D02*
X123948000Y-79780000D01*
X103438000Y-79740000D02*
X123892000Y-79740000D01*
X103494000Y-79700000D02*
X123836000Y-79700000D01*
X103550000Y-79660000D02*
X123780000Y-79660000D01*
X103607000Y-79620000D02*
X123723000Y-79620000D01*
X103665000Y-79580000D02*
X123665000Y-79580000D01*
X103723000Y-79540000D02*
X123607000Y-79540000D01*
X103781000Y-79500000D02*
X123549000Y-79500000D01*
X103840000Y-79460000D02*
X123490000Y-79460000D01*
X103900000Y-79420000D02*
X123430000Y-79420000D01*
X103960000Y-79380000D02*
X123370000Y-79380000D01*
X104020000Y-79340000D02*
X123310000Y-79340000D01*
X104081000Y-79300000D02*
X123249000Y-79300000D01*
X104143000Y-79260000D02*
X123187000Y-79260000D01*
X104205000Y-79220000D02*
X123125000Y-79220000D01*
X104268000Y-79180000D02*
X123062000Y-79180000D01*
X104331000Y-79140000D02*
X122999000Y-79140000D01*
X104395000Y-79100000D02*
X122935000Y-79100000D01*
X104460000Y-79060000D02*
X122870000Y-79060000D01*
X104525000Y-79020000D02*
X122805000Y-79020000D01*
X104591000Y-78980000D02*
X122739000Y-78980000D01*
X104657000Y-78940000D02*
X122673000Y-78940000D01*
X104725000Y-78900000D02*
X122605000Y-78900000D01*
X104792000Y-78860000D02*
X122538000Y-78860000D01*
X104861000Y-78820000D02*
X122469000Y-78820000D01*
X104930000Y-78780000D02*
X122400000Y-78780000D01*
X105000000Y-78740000D02*
X122330000Y-78740000D01*
X105071000Y-78700000D02*
X122259000Y-78700000D01*
X105143000Y-78660000D02*
X122187000Y-78660000D01*
X105215000Y-78620000D02*
X122115000Y-78620000D01*
X105288000Y-78580000D02*
X122042000Y-78580000D01*
X105362000Y-78540000D02*
X121968000Y-78540000D01*
X105437000Y-78500000D02*
X121893000Y-78500000D01*
X105513000Y-78460000D02*
X121817000Y-78460000D01*
X105589000Y-78420000D02*
X121741000Y-78420000D01*
X105667000Y-78380000D02*
X121663000Y-78380000D01*
X105745000Y-78340000D02*
X121585000Y-78340000D01*
X105825000Y-78300000D02*
X121505000Y-78300000D01*
X105906000Y-78260000D02*
X121424000Y-78260000D01*
X105987000Y-78220000D02*
X121343000Y-78220000D01*
X106070000Y-78180000D02*
X121260000Y-78180000D01*
X106153000Y-78140000D02*
X121177000Y-78140000D01*
X106238000Y-78100000D02*
X121092000Y-78100000D01*
X106324000Y-78060000D02*
X121006000Y-78060000D01*
X106412000Y-78020000D02*
X120918000Y-78020000D01*
X106500000Y-77980000D02*
X120830000Y-77980000D01*
X106590000Y-77940000D02*
X120740000Y-77940000D01*
X106682000Y-77900000D02*
X120648000Y-77900000D01*
X106775000Y-77860000D02*
X120555000Y-77860000D01*
X106869000Y-77820000D02*
X120461000Y-77820000D01*
X106965000Y-77780000D02*
X120365000Y-77780000D01*
X107062000Y-77740000D02*
X120268000Y-77740000D01*
X107161000Y-77700000D02*
X120169000Y-77700000D01*
X107262000Y-77660000D02*
X120068000Y-77660000D01*
X107365000Y-77620000D02*
X119965000Y-77620000D01*
X107470000Y-77580000D02*
X119860000Y-77580000D01*
X107576000Y-77540000D02*
X119754000Y-77540000D01*
X107685000Y-77500000D02*
X119645000Y-77500000D01*
X107797000Y-77460000D02*
X119533000Y-77460000D01*
X107910000Y-77420000D02*
X119420000Y-77420000D01*
X108026000Y-77380000D02*
X119304000Y-77380000D01*
X108145000Y-77340000D02*
X119185000Y-77340000D01*
X108267000Y-77300000D02*
X119063000Y-77300000D01*
X108392000Y-77260000D02*
X118938000Y-77260000D01*
X108520000Y-77220000D02*
X118810000Y-77220000D01*
X108652000Y-77180000D02*
X118678000Y-77180000D01*
X108787000Y-77140000D02*
X118543000Y-77140000D01*
X108927000Y-77100000D02*
X118403000Y-77100000D01*
X109072000Y-77060000D02*
X118258000Y-77060000D01*
X109221000Y-77020000D02*
X118109000Y-77020000D01*
X109376000Y-76980000D02*
X117954000Y-76980000D01*
X109537000Y-76940000D02*
X117793000Y-76940000D01*
X109705000Y-76900000D02*
X117625000Y-76900000D01*
X109880000Y-76860000D02*
X117450000Y-76860000D01*
X110065000Y-76820000D02*
X117265000Y-76820000D01*
X110260000Y-76780000D02*
X117070000Y-76780000D01*
X110467000Y-76740000D02*
X116863000Y-76740000D01*
X110689000Y-76700000D02*
X116641000Y-76700000D01*
X110929000Y-76660000D02*
X116401000Y-76660000D01*
X111192000Y-76620000D02*
X116138000Y-76620000D01*
X111488000Y-76580000D02*
X115842000Y-76580000D01*
X111830000Y-76540000D02*
X115500000Y-76540000D01*
X112252000Y-76500000D02*
X115078000Y-76500000D01*
X112865000Y-76460000D02*
X114465000Y-76460000D01*
X103790000Y-112914002D02*
X103790000Y-109414002D01*
X102040000Y-111164002D02*
X105540000Y-111164002D01*
%TO.C,R2*%
X168350000Y-108713748D02*
X168350000Y-109236252D01*
X166930000Y-108713748D02*
X166930000Y-109236252D01*
%TO.C,U1*%
X181097000Y-111612000D02*
G75*
G03*
X181097000Y-111612000I-5120000J0D01*
G01*
D12*
%TO.C,TP1*%
X90935000Y-113538000D02*
G75*
G03*
X90935000Y-113538000I-1400000J0D01*
G01*
%TO.C,TP3*%
X91062000Y-121412000D02*
G75*
G03*
X91062000Y-121412000I-1400000J0D01*
G01*
%TO.C,TP2*%
X90935000Y-117348000D02*
G75*
G03*
X90935000Y-117348000I-1400000J0D01*
G01*
%TO.C,TP4*%
X91062000Y-125476000D02*
G75*
G03*
X91062000Y-125476000I-1400000J0D01*
G01*
%TO.C,TP5*%
X91189000Y-129540000D02*
G75*
G03*
X91189000Y-129540000I-1400000J0D01*
G01*
D11*
%TO.C,L2*%
X147530000Y-106274315D02*
G75*
G02*
X147530000Y-81725685I1060000J12274315D01*
G01*
X149650000Y-106274315D02*
G75*
G03*
X149650000Y-81725685I-1060000J12274315D01*
G01*
X151220000Y-94000000D02*
G75*
G03*
X151220000Y-94000000I-2630000J0D01*
G01*
%TO.C,L1*%
X114725000Y-117245685D02*
G75*
G02*
X114725000Y-141794315I-1060000J-12274315D01*
G01*
X112605000Y-117245685D02*
G75*
G03*
X112605000Y-141794315I1060000J-12274315D01*
G01*
X116295000Y-129520000D02*
G75*
G03*
X116295000Y-129520000I-2630000J0D01*
G01*
%TO.C,R1*%
X93328748Y-94159000D02*
X93851252Y-94159000D01*
X93328748Y-95579000D02*
X93851252Y-95579000D01*
%TO.C,J1*%
X81407000Y-104775000D02*
X89027000Y-104775000D01*
X89027000Y-84455000D02*
X81407000Y-84455000D01*
X87757000Y-84455000D02*
X87757000Y-104775000D01*
X81407000Y-104775000D02*
X81407000Y-84455000D01*
X89027000Y-104775000D02*
X89027000Y-84455000D01*
%TO.C,C2*%
X166210000Y-129460000D02*
G75*
G03*
X166210000Y-129460000I-17620000J0D01*
G01*
X166170000Y-129460000D02*
X131010000Y-129460000D01*
X166170000Y-129500000D02*
X131010000Y-129500000D01*
X166170000Y-129540000D02*
X131010000Y-129540000D01*
X166170000Y-129580000D02*
X131010000Y-129580000D01*
X166170000Y-129620000D02*
X131010000Y-129620000D01*
X166169000Y-129660000D02*
X131011000Y-129660000D01*
X166169000Y-129700000D02*
X131011000Y-129700000D01*
X166168000Y-129740000D02*
X131012000Y-129740000D01*
X166168000Y-129780000D02*
X131012000Y-129780000D01*
X166167000Y-129820000D02*
X131013000Y-129820000D01*
X166166000Y-129860000D02*
X131014000Y-129860000D01*
X166165000Y-129900000D02*
X131015000Y-129900000D01*
X166164000Y-129940000D02*
X131016000Y-129940000D01*
X166163000Y-129980000D02*
X131017000Y-129980000D01*
X166162000Y-130020000D02*
X131018000Y-130020000D01*
X166160000Y-130060000D02*
X131020000Y-130060000D01*
X166159000Y-130100000D02*
X131021000Y-130100000D01*
X166157000Y-130140000D02*
X131023000Y-130140000D01*
X166156000Y-130181000D02*
X131024000Y-130181000D01*
X166154000Y-130221000D02*
X131026000Y-130221000D01*
X166152000Y-130261000D02*
X131028000Y-130261000D01*
X166150000Y-130301000D02*
X131030000Y-130301000D01*
X166149000Y-130341000D02*
X131031000Y-130341000D01*
X166146000Y-130381000D02*
X131034000Y-130381000D01*
X166144000Y-130421000D02*
X131036000Y-130421000D01*
X166142000Y-130461000D02*
X131038000Y-130461000D01*
X166140000Y-130501000D02*
X131040000Y-130501000D01*
X166137000Y-130541000D02*
X131043000Y-130541000D01*
X166135000Y-130581000D02*
X131045000Y-130581000D01*
X166132000Y-130621000D02*
X131048000Y-130621000D01*
X166130000Y-130661000D02*
X131050000Y-130661000D01*
X166127000Y-130701000D02*
X131053000Y-130701000D01*
X166124000Y-130741000D02*
X131056000Y-130741000D01*
X166121000Y-130781000D02*
X131059000Y-130781000D01*
X166118000Y-130821000D02*
X131062000Y-130821000D01*
X166115000Y-130861000D02*
X131065000Y-130861000D01*
X166112000Y-130901000D02*
X131068000Y-130901000D01*
X166108000Y-130941000D02*
X131072000Y-130941000D01*
X166105000Y-130981000D02*
X131075000Y-130981000D01*
X166101000Y-131021000D02*
X131079000Y-131021000D01*
X166098000Y-131061000D02*
X131082000Y-131061000D01*
X166094000Y-131101000D02*
X131086000Y-131101000D01*
X166090000Y-131141000D02*
X131090000Y-131141000D01*
X166086000Y-131181000D02*
X131094000Y-131181000D01*
X166082000Y-131221000D02*
X131098000Y-131221000D01*
X166078000Y-131261000D02*
X131102000Y-131261000D01*
X166074000Y-131301000D02*
X131106000Y-131301000D01*
X166070000Y-131341000D02*
X131110000Y-131341000D01*
X166066000Y-131381000D02*
X131114000Y-131381000D01*
X166061000Y-131421000D02*
X131119000Y-131421000D01*
X166057000Y-131461000D02*
X131123000Y-131461000D01*
X166052000Y-131501000D02*
X131128000Y-131501000D01*
X166047000Y-131541000D02*
X131133000Y-131541000D01*
X166042000Y-131581000D02*
X131138000Y-131581000D01*
X166038000Y-131621000D02*
X131142000Y-131621000D01*
X166033000Y-131661000D02*
X131147000Y-131661000D01*
X166028000Y-131701000D02*
X131152000Y-131701000D01*
X166022000Y-131741000D02*
X131158000Y-131741000D01*
X166017000Y-131781000D02*
X131163000Y-131781000D01*
X166012000Y-131821000D02*
X131168000Y-131821000D01*
X166006000Y-131861000D02*
X131174000Y-131861000D01*
X166001000Y-131901000D02*
X131179000Y-131901000D01*
X165995000Y-131941000D02*
X131185000Y-131941000D01*
X165989000Y-131981000D02*
X131191000Y-131981000D01*
X165984000Y-132021000D02*
X131196000Y-132021000D01*
X165978000Y-132061000D02*
X131202000Y-132061000D01*
X165972000Y-132101000D02*
X131208000Y-132101000D01*
X165965000Y-132141000D02*
X131215000Y-132141000D01*
X165959000Y-132181000D02*
X131221000Y-132181000D01*
X165953000Y-132221000D02*
X150830000Y-132221000D01*
X146350000Y-132221000D02*
X131227000Y-132221000D01*
X165947000Y-132261000D02*
X150830000Y-132261000D01*
X146350000Y-132261000D02*
X131233000Y-132261000D01*
X165940000Y-132301000D02*
X150830000Y-132301000D01*
X146350000Y-132301000D02*
X131240000Y-132301000D01*
X165934000Y-132341000D02*
X150830000Y-132341000D01*
X146350000Y-132341000D02*
X131246000Y-132341000D01*
X165927000Y-132381000D02*
X150830000Y-132381000D01*
X146350000Y-132381000D02*
X131253000Y-132381000D01*
X165920000Y-132421000D02*
X150830000Y-132421000D01*
X146350000Y-132421000D02*
X131260000Y-132421000D01*
X165913000Y-132461000D02*
X150830000Y-132461000D01*
X146350000Y-132461000D02*
X131267000Y-132461000D01*
X165906000Y-132501000D02*
X150830000Y-132501000D01*
X146350000Y-132501000D02*
X131274000Y-132501000D01*
X165899000Y-132541000D02*
X150830000Y-132541000D01*
X146350000Y-132541000D02*
X131281000Y-132541000D01*
X165892000Y-132581000D02*
X150830000Y-132581000D01*
X146350000Y-132581000D02*
X131288000Y-132581000D01*
X165885000Y-132621000D02*
X150830000Y-132621000D01*
X146350000Y-132621000D02*
X131295000Y-132621000D01*
X165877000Y-132661000D02*
X150830000Y-132661000D01*
X146350000Y-132661000D02*
X131303000Y-132661000D01*
X165870000Y-132701000D02*
X150830000Y-132701000D01*
X146350000Y-132701000D02*
X131310000Y-132701000D01*
X165863000Y-132741000D02*
X150830000Y-132741000D01*
X146350000Y-132741000D02*
X131317000Y-132741000D01*
X165855000Y-132781000D02*
X150830000Y-132781000D01*
X146350000Y-132781000D02*
X131325000Y-132781000D01*
X165847000Y-132821000D02*
X150830000Y-132821000D01*
X146350000Y-132821000D02*
X131333000Y-132821000D01*
X165839000Y-132861000D02*
X150830000Y-132861000D01*
X146350000Y-132861000D02*
X131341000Y-132861000D01*
X165831000Y-132901000D02*
X150830000Y-132901000D01*
X146350000Y-132901000D02*
X131349000Y-132901000D01*
X165823000Y-132941000D02*
X150830000Y-132941000D01*
X146350000Y-132941000D02*
X131357000Y-132941000D01*
X165815000Y-132981000D02*
X150830000Y-132981000D01*
X146350000Y-132981000D02*
X131365000Y-132981000D01*
X165807000Y-133021000D02*
X150830000Y-133021000D01*
X146350000Y-133021000D02*
X131373000Y-133021000D01*
X165799000Y-133061000D02*
X150830000Y-133061000D01*
X146350000Y-133061000D02*
X131381000Y-133061000D01*
X165790000Y-133101000D02*
X150830000Y-133101000D01*
X146350000Y-133101000D02*
X131390000Y-133101000D01*
X165782000Y-133141000D02*
X150830000Y-133141000D01*
X146350000Y-133141000D02*
X131398000Y-133141000D01*
X165773000Y-133181000D02*
X150830000Y-133181000D01*
X146350000Y-133181000D02*
X131407000Y-133181000D01*
X165765000Y-133221000D02*
X150830000Y-133221000D01*
X146350000Y-133221000D02*
X131415000Y-133221000D01*
X165756000Y-133261000D02*
X150830000Y-133261000D01*
X146350000Y-133261000D02*
X131424000Y-133261000D01*
X165747000Y-133301000D02*
X150830000Y-133301000D01*
X146350000Y-133301000D02*
X131433000Y-133301000D01*
X165738000Y-133341000D02*
X150830000Y-133341000D01*
X146350000Y-133341000D02*
X131442000Y-133341000D01*
X165729000Y-133381000D02*
X150830000Y-133381000D01*
X146350000Y-133381000D02*
X131451000Y-133381000D01*
X165720000Y-133421000D02*
X150830000Y-133421000D01*
X146350000Y-133421000D02*
X131460000Y-133421000D01*
X165710000Y-133461000D02*
X150830000Y-133461000D01*
X146350000Y-133461000D02*
X131470000Y-133461000D01*
X165701000Y-133501000D02*
X150830000Y-133501000D01*
X146350000Y-133501000D02*
X131479000Y-133501000D01*
X165692000Y-133541000D02*
X150830000Y-133541000D01*
X146350000Y-133541000D02*
X131488000Y-133541000D01*
X165682000Y-133581000D02*
X150830000Y-133581000D01*
X146350000Y-133581000D02*
X131498000Y-133581000D01*
X165672000Y-133621000D02*
X150830000Y-133621000D01*
X146350000Y-133621000D02*
X131508000Y-133621000D01*
X165663000Y-133661000D02*
X150830000Y-133661000D01*
X146350000Y-133661000D02*
X131517000Y-133661000D01*
X165653000Y-133701000D02*
X150830000Y-133701000D01*
X146350000Y-133701000D02*
X131527000Y-133701000D01*
X165643000Y-133741000D02*
X150830000Y-133741000D01*
X146350000Y-133741000D02*
X131537000Y-133741000D01*
X165633000Y-133781000D02*
X150830000Y-133781000D01*
X146350000Y-133781000D02*
X131547000Y-133781000D01*
X165623000Y-133821000D02*
X150830000Y-133821000D01*
X146350000Y-133821000D02*
X131557000Y-133821000D01*
X165612000Y-133861000D02*
X150830000Y-133861000D01*
X146350000Y-133861000D02*
X131568000Y-133861000D01*
X165602000Y-133901000D02*
X150830000Y-133901000D01*
X146350000Y-133901000D02*
X131578000Y-133901000D01*
X165591000Y-133941000D02*
X150830000Y-133941000D01*
X146350000Y-133941000D02*
X131589000Y-133941000D01*
X165581000Y-133981000D02*
X150830000Y-133981000D01*
X146350000Y-133981000D02*
X131599000Y-133981000D01*
X165570000Y-134021000D02*
X150830000Y-134021000D01*
X146350000Y-134021000D02*
X131610000Y-134021000D01*
X165559000Y-134061000D02*
X150830000Y-134061000D01*
X146350000Y-134061000D02*
X131621000Y-134061000D01*
X165549000Y-134101000D02*
X150830000Y-134101000D01*
X146350000Y-134101000D02*
X131631000Y-134101000D01*
X165538000Y-134141000D02*
X150830000Y-134141000D01*
X146350000Y-134141000D02*
X131642000Y-134141000D01*
X165527000Y-134181000D02*
X150830000Y-134181000D01*
X146350000Y-134181000D02*
X131653000Y-134181000D01*
X165515000Y-134221000D02*
X150830000Y-134221000D01*
X146350000Y-134221000D02*
X131665000Y-134221000D01*
X165504000Y-134261000D02*
X150830000Y-134261000D01*
X146350000Y-134261000D02*
X131676000Y-134261000D01*
X165493000Y-134301000D02*
X150830000Y-134301000D01*
X146350000Y-134301000D02*
X131687000Y-134301000D01*
X165481000Y-134341000D02*
X150830000Y-134341000D01*
X146350000Y-134341000D02*
X131699000Y-134341000D01*
X165470000Y-134381000D02*
X150830000Y-134381000D01*
X146350000Y-134381000D02*
X131710000Y-134381000D01*
X165458000Y-134421000D02*
X150830000Y-134421000D01*
X146350000Y-134421000D02*
X131722000Y-134421000D01*
X165446000Y-134461000D02*
X150830000Y-134461000D01*
X146350000Y-134461000D02*
X131734000Y-134461000D01*
X165434000Y-134501000D02*
X150830000Y-134501000D01*
X146350000Y-134501000D02*
X131746000Y-134501000D01*
X165422000Y-134541000D02*
X150830000Y-134541000D01*
X146350000Y-134541000D02*
X131758000Y-134541000D01*
X165410000Y-134581000D02*
X150830000Y-134581000D01*
X146350000Y-134581000D02*
X131770000Y-134581000D01*
X165398000Y-134621000D02*
X150830000Y-134621000D01*
X146350000Y-134621000D02*
X131782000Y-134621000D01*
X165386000Y-134661000D02*
X150830000Y-134661000D01*
X146350000Y-134661000D02*
X131794000Y-134661000D01*
X165373000Y-134701000D02*
X150830000Y-134701000D01*
X146350000Y-134701000D02*
X131807000Y-134701000D01*
X165361000Y-134741000D02*
X150830000Y-134741000D01*
X146350000Y-134741000D02*
X131819000Y-134741000D01*
X165348000Y-134781000D02*
X150830000Y-134781000D01*
X146350000Y-134781000D02*
X131832000Y-134781000D01*
X165335000Y-134821000D02*
X150830000Y-134821000D01*
X146350000Y-134821000D02*
X131845000Y-134821000D01*
X165323000Y-134861000D02*
X150830000Y-134861000D01*
X146350000Y-134861000D02*
X131857000Y-134861000D01*
X165310000Y-134901000D02*
X150830000Y-134901000D01*
X146350000Y-134901000D02*
X131870000Y-134901000D01*
X165297000Y-134941000D02*
X150830000Y-134941000D01*
X146350000Y-134941000D02*
X131883000Y-134941000D01*
X165284000Y-134981000D02*
X150830000Y-134981000D01*
X146350000Y-134981000D02*
X131896000Y-134981000D01*
X165270000Y-135021000D02*
X150830000Y-135021000D01*
X146350000Y-135021000D02*
X131910000Y-135021000D01*
X165257000Y-135061000D02*
X150830000Y-135061000D01*
X146350000Y-135061000D02*
X131923000Y-135061000D01*
X165243000Y-135101000D02*
X150830000Y-135101000D01*
X146350000Y-135101000D02*
X131937000Y-135101000D01*
X165230000Y-135141000D02*
X150830000Y-135141000D01*
X146350000Y-135141000D02*
X131950000Y-135141000D01*
X165216000Y-135181000D02*
X150830000Y-135181000D01*
X146350000Y-135181000D02*
X131964000Y-135181000D01*
X165202000Y-135221000D02*
X150830000Y-135221000D01*
X146350000Y-135221000D02*
X131978000Y-135221000D01*
X165189000Y-135261000D02*
X150830000Y-135261000D01*
X146350000Y-135261000D02*
X131991000Y-135261000D01*
X165175000Y-135301000D02*
X150830000Y-135301000D01*
X146350000Y-135301000D02*
X132005000Y-135301000D01*
X165160000Y-135341000D02*
X150830000Y-135341000D01*
X146350000Y-135341000D02*
X132020000Y-135341000D01*
X165146000Y-135381000D02*
X150830000Y-135381000D01*
X146350000Y-135381000D02*
X132034000Y-135381000D01*
X165132000Y-135421000D02*
X150830000Y-135421000D01*
X146350000Y-135421000D02*
X132048000Y-135421000D01*
X165117000Y-135461000D02*
X150830000Y-135461000D01*
X146350000Y-135461000D02*
X132063000Y-135461000D01*
X165103000Y-135501000D02*
X150830000Y-135501000D01*
X146350000Y-135501000D02*
X132077000Y-135501000D01*
X165088000Y-135541000D02*
X150830000Y-135541000D01*
X146350000Y-135541000D02*
X132092000Y-135541000D01*
X165074000Y-135581000D02*
X150830000Y-135581000D01*
X146350000Y-135581000D02*
X132106000Y-135581000D01*
X165059000Y-135621000D02*
X150830000Y-135621000D01*
X146350000Y-135621000D02*
X132121000Y-135621000D01*
X165044000Y-135661000D02*
X150830000Y-135661000D01*
X146350000Y-135661000D02*
X132136000Y-135661000D01*
X165029000Y-135701000D02*
X150830000Y-135701000D01*
X146350000Y-135701000D02*
X132151000Y-135701000D01*
X165013000Y-135741000D02*
X150830000Y-135741000D01*
X146350000Y-135741000D02*
X132167000Y-135741000D01*
X164998000Y-135781000D02*
X150830000Y-135781000D01*
X146350000Y-135781000D02*
X132182000Y-135781000D01*
X164983000Y-135821000D02*
X150830000Y-135821000D01*
X146350000Y-135821000D02*
X132197000Y-135821000D01*
X164967000Y-135861000D02*
X150830000Y-135861000D01*
X146350000Y-135861000D02*
X132213000Y-135861000D01*
X164951000Y-135901000D02*
X150830000Y-135901000D01*
X146350000Y-135901000D02*
X132229000Y-135901000D01*
X164936000Y-135941000D02*
X150830000Y-135941000D01*
X146350000Y-135941000D02*
X132244000Y-135941000D01*
X164920000Y-135981000D02*
X150830000Y-135981000D01*
X146350000Y-135981000D02*
X132260000Y-135981000D01*
X164904000Y-136021000D02*
X150830000Y-136021000D01*
X146350000Y-136021000D02*
X132276000Y-136021000D01*
X164888000Y-136061000D02*
X150830000Y-136061000D01*
X146350000Y-136061000D02*
X132292000Y-136061000D01*
X164871000Y-136101000D02*
X150830000Y-136101000D01*
X146350000Y-136101000D02*
X132309000Y-136101000D01*
X164855000Y-136141000D02*
X150830000Y-136141000D01*
X146350000Y-136141000D02*
X132325000Y-136141000D01*
X164839000Y-136181000D02*
X150830000Y-136181000D01*
X146350000Y-136181000D02*
X132341000Y-136181000D01*
X164822000Y-136221000D02*
X150830000Y-136221000D01*
X146350000Y-136221000D02*
X132358000Y-136221000D01*
X164805000Y-136261000D02*
X150830000Y-136261000D01*
X146350000Y-136261000D02*
X132375000Y-136261000D01*
X164789000Y-136301000D02*
X150830000Y-136301000D01*
X146350000Y-136301000D02*
X132391000Y-136301000D01*
X164772000Y-136341000D02*
X150830000Y-136341000D01*
X146350000Y-136341000D02*
X132408000Y-136341000D01*
X164755000Y-136381000D02*
X150830000Y-136381000D01*
X146350000Y-136381000D02*
X132425000Y-136381000D01*
X164738000Y-136421000D02*
X150830000Y-136421000D01*
X146350000Y-136421000D02*
X132442000Y-136421000D01*
X164720000Y-136461000D02*
X150830000Y-136461000D01*
X146350000Y-136461000D02*
X132460000Y-136461000D01*
X164703000Y-136501000D02*
X150830000Y-136501000D01*
X146350000Y-136501000D02*
X132477000Y-136501000D01*
X164685000Y-136541000D02*
X150830000Y-136541000D01*
X146350000Y-136541000D02*
X132495000Y-136541000D01*
X164668000Y-136581000D02*
X150830000Y-136581000D01*
X146350000Y-136581000D02*
X132512000Y-136581000D01*
X164650000Y-136621000D02*
X150830000Y-136621000D01*
X146350000Y-136621000D02*
X132530000Y-136621000D01*
X164632000Y-136661000D02*
X150830000Y-136661000D01*
X146350000Y-136661000D02*
X132548000Y-136661000D01*
X164614000Y-136701000D02*
X132566000Y-136701000D01*
X164596000Y-136741000D02*
X132584000Y-136741000D01*
X164578000Y-136781000D02*
X132602000Y-136781000D01*
X164560000Y-136821000D02*
X132620000Y-136821000D01*
X164541000Y-136861000D02*
X132639000Y-136861000D01*
X164523000Y-136901000D02*
X132657000Y-136901000D01*
X164504000Y-136941000D02*
X132676000Y-136941000D01*
X164485000Y-136981000D02*
X132695000Y-136981000D01*
X164466000Y-137021000D02*
X132714000Y-137021000D01*
X164447000Y-137061000D02*
X132733000Y-137061000D01*
X164428000Y-137101000D02*
X132752000Y-137101000D01*
X164409000Y-137141000D02*
X132771000Y-137141000D01*
X164389000Y-137181000D02*
X132791000Y-137181000D01*
X164370000Y-137221000D02*
X132810000Y-137221000D01*
X164350000Y-137261000D02*
X132830000Y-137261000D01*
X164330000Y-137301000D02*
X132850000Y-137301000D01*
X164310000Y-137341000D02*
X132870000Y-137341000D01*
X164290000Y-137381000D02*
X132890000Y-137381000D01*
X164270000Y-137421000D02*
X132910000Y-137421000D01*
X164250000Y-137461000D02*
X132930000Y-137461000D01*
X164229000Y-137501000D02*
X132951000Y-137501000D01*
X164209000Y-137541000D02*
X132971000Y-137541000D01*
X164188000Y-137581000D02*
X132992000Y-137581000D01*
X164167000Y-137621000D02*
X133013000Y-137621000D01*
X164146000Y-137660000D02*
X133034000Y-137660000D01*
X164125000Y-137700000D02*
X133055000Y-137700000D01*
X164104000Y-137740000D02*
X133076000Y-137740000D01*
X164082000Y-137780000D02*
X133098000Y-137780000D01*
X164061000Y-137820000D02*
X133119000Y-137820000D01*
X164039000Y-137860000D02*
X133141000Y-137860000D01*
X164018000Y-137900000D02*
X133162000Y-137900000D01*
X163996000Y-137940000D02*
X133184000Y-137940000D01*
X163974000Y-137980000D02*
X133206000Y-137980000D01*
X163951000Y-138020000D02*
X133229000Y-138020000D01*
X163929000Y-138060000D02*
X133251000Y-138060000D01*
X163907000Y-138100000D02*
X133273000Y-138100000D01*
X163884000Y-138140000D02*
X133296000Y-138140000D01*
X163861000Y-138180000D02*
X133319000Y-138180000D01*
X163839000Y-138220000D02*
X133341000Y-138220000D01*
X163816000Y-138260000D02*
X133364000Y-138260000D01*
X163793000Y-138300000D02*
X133387000Y-138300000D01*
X163769000Y-138340000D02*
X133411000Y-138340000D01*
X163746000Y-138380000D02*
X133434000Y-138380000D01*
X163722000Y-138420000D02*
X133458000Y-138420000D01*
X163699000Y-138460000D02*
X133481000Y-138460000D01*
X163675000Y-138500000D02*
X133505000Y-138500000D01*
X163651000Y-138540000D02*
X133529000Y-138540000D01*
X163627000Y-138580000D02*
X133553000Y-138580000D01*
X163602000Y-138620000D02*
X133578000Y-138620000D01*
X163578000Y-138660000D02*
X133602000Y-138660000D01*
X163553000Y-138700000D02*
X133627000Y-138700000D01*
X163529000Y-138740000D02*
X133651000Y-138740000D01*
X163504000Y-138780000D02*
X133676000Y-138780000D01*
X163479000Y-138820000D02*
X133701000Y-138820000D01*
X163454000Y-138860000D02*
X133726000Y-138860000D01*
X163428000Y-138900000D02*
X133752000Y-138900000D01*
X163403000Y-138940000D02*
X133777000Y-138940000D01*
X163377000Y-138980000D02*
X133803000Y-138980000D01*
X163352000Y-139020000D02*
X133828000Y-139020000D01*
X163326000Y-139060000D02*
X133854000Y-139060000D01*
X163300000Y-139100000D02*
X133880000Y-139100000D01*
X163273000Y-139140000D02*
X133907000Y-139140000D01*
X163247000Y-139180000D02*
X133933000Y-139180000D01*
X163220000Y-139220000D02*
X133960000Y-139220000D01*
X163194000Y-139260000D02*
X133986000Y-139260000D01*
X163167000Y-139300000D02*
X134013000Y-139300000D01*
X163140000Y-139340000D02*
X134040000Y-139340000D01*
X163113000Y-139380000D02*
X134067000Y-139380000D01*
X163085000Y-139420000D02*
X134095000Y-139420000D01*
X163058000Y-139460000D02*
X134122000Y-139460000D01*
X163030000Y-139500000D02*
X134150000Y-139500000D01*
X163002000Y-139540000D02*
X134178000Y-139540000D01*
X162974000Y-139580000D02*
X134206000Y-139580000D01*
X162946000Y-139620000D02*
X134234000Y-139620000D01*
X162918000Y-139660000D02*
X134262000Y-139660000D01*
X162889000Y-139700000D02*
X134291000Y-139700000D01*
X162861000Y-139740000D02*
X134319000Y-139740000D01*
X162832000Y-139780000D02*
X134348000Y-139780000D01*
X162803000Y-139820000D02*
X134377000Y-139820000D01*
X162774000Y-139860000D02*
X134406000Y-139860000D01*
X162745000Y-139900000D02*
X134435000Y-139900000D01*
X162715000Y-139940000D02*
X134465000Y-139940000D01*
X162685000Y-139980000D02*
X134495000Y-139980000D01*
X162655000Y-140020000D02*
X134525000Y-140020000D01*
X162625000Y-140060000D02*
X134555000Y-140060000D01*
X162595000Y-140100000D02*
X134585000Y-140100000D01*
X162565000Y-140140000D02*
X134615000Y-140140000D01*
X162534000Y-140180000D02*
X134646000Y-140180000D01*
X162504000Y-140220000D02*
X134676000Y-140220000D01*
X162473000Y-140260000D02*
X134707000Y-140260000D01*
X162441000Y-140300000D02*
X134739000Y-140300000D01*
X162410000Y-140340000D02*
X134770000Y-140340000D01*
X162379000Y-140380000D02*
X134801000Y-140380000D01*
X162347000Y-140420000D02*
X134833000Y-140420000D01*
X162315000Y-140460000D02*
X134865000Y-140460000D01*
X162283000Y-140500000D02*
X134897000Y-140500000D01*
X162251000Y-140540000D02*
X134929000Y-140540000D01*
X162218000Y-140580000D02*
X134962000Y-140580000D01*
X162186000Y-140620000D02*
X134994000Y-140620000D01*
X162153000Y-140660000D02*
X135027000Y-140660000D01*
X162120000Y-140700000D02*
X135060000Y-140700000D01*
X162087000Y-140740000D02*
X135093000Y-140740000D01*
X162053000Y-140780000D02*
X135127000Y-140780000D01*
X162020000Y-140820000D02*
X135160000Y-140820000D01*
X161986000Y-140860000D02*
X135194000Y-140860000D01*
X161952000Y-140900000D02*
X135228000Y-140900000D01*
X161917000Y-140940000D02*
X135263000Y-140940000D01*
X161883000Y-140980000D02*
X135297000Y-140980000D01*
X161848000Y-141020000D02*
X135332000Y-141020000D01*
X161813000Y-141060000D02*
X135367000Y-141060000D01*
X161778000Y-141100000D02*
X135402000Y-141100000D01*
X161743000Y-141140000D02*
X135437000Y-141140000D01*
X161707000Y-141180000D02*
X135473000Y-141180000D01*
X161672000Y-141220000D02*
X135508000Y-141220000D01*
X161636000Y-141260000D02*
X135544000Y-141260000D01*
X161600000Y-141300000D02*
X135580000Y-141300000D01*
X161563000Y-141340000D02*
X135617000Y-141340000D01*
X161527000Y-141380000D02*
X135653000Y-141380000D01*
X161490000Y-141420000D02*
X135690000Y-141420000D01*
X161453000Y-141460000D02*
X135727000Y-141460000D01*
X161415000Y-141500000D02*
X135765000Y-141500000D01*
X161378000Y-141540000D02*
X135802000Y-141540000D01*
X161340000Y-141580000D02*
X135840000Y-141580000D01*
X161302000Y-141620000D02*
X135878000Y-141620000D01*
X161264000Y-141660000D02*
X135916000Y-141660000D01*
X161225000Y-141700000D02*
X135955000Y-141700000D01*
X161186000Y-141740000D02*
X135994000Y-141740000D01*
X161147000Y-141780000D02*
X136033000Y-141780000D01*
X161108000Y-141820000D02*
X136072000Y-141820000D01*
X161069000Y-141860000D02*
X136111000Y-141860000D01*
X161029000Y-141900000D02*
X136151000Y-141900000D01*
X160989000Y-141940000D02*
X136191000Y-141940000D01*
X160949000Y-141980000D02*
X136231000Y-141980000D01*
X160908000Y-142020000D02*
X136272000Y-142020000D01*
X160867000Y-142060000D02*
X136313000Y-142060000D01*
X160826000Y-142100000D02*
X136354000Y-142100000D01*
X160785000Y-142140000D02*
X136395000Y-142140000D01*
X160743000Y-142180000D02*
X136437000Y-142180000D01*
X160701000Y-142220000D02*
X136479000Y-142220000D01*
X160659000Y-142260000D02*
X136521000Y-142260000D01*
X160617000Y-142300000D02*
X136563000Y-142300000D01*
X160574000Y-142340000D02*
X136606000Y-142340000D01*
X160531000Y-142380000D02*
X136649000Y-142380000D01*
X160488000Y-142420000D02*
X136692000Y-142420000D01*
X160444000Y-142460000D02*
X136736000Y-142460000D01*
X160401000Y-142500000D02*
X136779000Y-142500000D01*
X160356000Y-142540000D02*
X136824000Y-142540000D01*
X160312000Y-142580000D02*
X136868000Y-142580000D01*
X160267000Y-142620000D02*
X136913000Y-142620000D01*
X160222000Y-142660000D02*
X136958000Y-142660000D01*
X160177000Y-142700000D02*
X137003000Y-142700000D01*
X160131000Y-142740000D02*
X137049000Y-142740000D01*
X160085000Y-142780000D02*
X137095000Y-142780000D01*
X160039000Y-142820000D02*
X137141000Y-142820000D01*
X159992000Y-142860000D02*
X137188000Y-142860000D01*
X159945000Y-142900000D02*
X137235000Y-142900000D01*
X159897000Y-142940000D02*
X137283000Y-142940000D01*
X159850000Y-142980000D02*
X137330000Y-142980000D01*
X159802000Y-143020000D02*
X137378000Y-143020000D01*
X159753000Y-143060000D02*
X137427000Y-143060000D01*
X159705000Y-143100000D02*
X137475000Y-143100000D01*
X159656000Y-143140000D02*
X137524000Y-143140000D01*
X159606000Y-143180000D02*
X137574000Y-143180000D01*
X159556000Y-143220000D02*
X137624000Y-143220000D01*
X159506000Y-143260000D02*
X137674000Y-143260000D01*
X159455000Y-143300000D02*
X137725000Y-143300000D01*
X159405000Y-143340000D02*
X137775000Y-143340000D01*
X159353000Y-143380000D02*
X137827000Y-143380000D01*
X159301000Y-143420000D02*
X137879000Y-143420000D01*
X159249000Y-143460000D02*
X137931000Y-143460000D01*
X159197000Y-143500000D02*
X137983000Y-143500000D01*
X159144000Y-143540000D02*
X138036000Y-143540000D01*
X159090000Y-143580000D02*
X138090000Y-143580000D01*
X159037000Y-143620000D02*
X138143000Y-143620000D01*
X158982000Y-143660000D02*
X138198000Y-143660000D01*
X158928000Y-143700000D02*
X138252000Y-143700000D01*
X158873000Y-143740000D02*
X138307000Y-143740000D01*
X158817000Y-143780000D02*
X138363000Y-143780000D01*
X158761000Y-143820000D02*
X138419000Y-143820000D01*
X158705000Y-143860000D02*
X138475000Y-143860000D01*
X158648000Y-143900000D02*
X138532000Y-143900000D01*
X158590000Y-143940000D02*
X138590000Y-143940000D01*
X158532000Y-143980000D02*
X138648000Y-143980000D01*
X158474000Y-144020000D02*
X138706000Y-144020000D01*
X158415000Y-144060000D02*
X138765000Y-144060000D01*
X158355000Y-144100000D02*
X138825000Y-144100000D01*
X158295000Y-144140000D02*
X138885000Y-144140000D01*
X158235000Y-144180000D02*
X138945000Y-144180000D01*
X158174000Y-144220000D02*
X139006000Y-144220000D01*
X158112000Y-144260000D02*
X139068000Y-144260000D01*
X158050000Y-144300000D02*
X139130000Y-144300000D01*
X157987000Y-144340000D02*
X139193000Y-144340000D01*
X157924000Y-144380000D02*
X139256000Y-144380000D01*
X157860000Y-144420000D02*
X139320000Y-144420000D01*
X157795000Y-144460000D02*
X139385000Y-144460000D01*
X157730000Y-144500000D02*
X139450000Y-144500000D01*
X157664000Y-144540000D02*
X139516000Y-144540000D01*
X157598000Y-144580000D02*
X139582000Y-144580000D01*
X157530000Y-144620000D02*
X139650000Y-144620000D01*
X157463000Y-144660000D02*
X139717000Y-144660000D01*
X157394000Y-144700000D02*
X139786000Y-144700000D01*
X157325000Y-144740000D02*
X139855000Y-144740000D01*
X157255000Y-144780000D02*
X139925000Y-144780000D01*
X157184000Y-144820000D02*
X139996000Y-144820000D01*
X157112000Y-144860000D02*
X140068000Y-144860000D01*
X157040000Y-144900000D02*
X140140000Y-144900000D01*
X156967000Y-144940000D02*
X140213000Y-144940000D01*
X156893000Y-144980000D02*
X140287000Y-144980000D01*
X156818000Y-145020000D02*
X140362000Y-145020000D01*
X156742000Y-145060000D02*
X140438000Y-145060000D01*
X156666000Y-145100000D02*
X140514000Y-145100000D01*
X156588000Y-145140000D02*
X140592000Y-145140000D01*
X156510000Y-145180000D02*
X140670000Y-145180000D01*
X156430000Y-145220000D02*
X140750000Y-145220000D01*
X156349000Y-145260000D02*
X140831000Y-145260000D01*
X156268000Y-145300000D02*
X140912000Y-145300000D01*
X156185000Y-145340000D02*
X140995000Y-145340000D01*
X156102000Y-145380000D02*
X141078000Y-145380000D01*
X156017000Y-145420000D02*
X141163000Y-145420000D01*
X155931000Y-145460000D02*
X141249000Y-145460000D01*
X155843000Y-145500000D02*
X141337000Y-145500000D01*
X155755000Y-145540000D02*
X141425000Y-145540000D01*
X155665000Y-145580000D02*
X141515000Y-145580000D01*
X155573000Y-145620000D02*
X141607000Y-145620000D01*
X155480000Y-145660000D02*
X141700000Y-145660000D01*
X155386000Y-145700000D02*
X141794000Y-145700000D01*
X155290000Y-145740000D02*
X141890000Y-145740000D01*
X155193000Y-145780000D02*
X141987000Y-145780000D01*
X155094000Y-145820000D02*
X142086000Y-145820000D01*
X154993000Y-145860000D02*
X142187000Y-145860000D01*
X154890000Y-145900000D02*
X142290000Y-145900000D01*
X154785000Y-145940000D02*
X142395000Y-145940000D01*
X154679000Y-145980000D02*
X142501000Y-145980000D01*
X154570000Y-146020000D02*
X142610000Y-146020000D01*
X154458000Y-146060000D02*
X142722000Y-146060000D01*
X154345000Y-146100000D02*
X142835000Y-146100000D01*
X154229000Y-146140000D02*
X142951000Y-146140000D01*
X154110000Y-146180000D02*
X143070000Y-146180000D01*
X153988000Y-146220000D02*
X143192000Y-146220000D01*
X153863000Y-146260000D02*
X143317000Y-146260000D01*
X153735000Y-146300000D02*
X143445000Y-146300000D01*
X153603000Y-146340000D02*
X143577000Y-146340000D01*
X153468000Y-146380000D02*
X143712000Y-146380000D01*
X153328000Y-146420000D02*
X143852000Y-146420000D01*
X153183000Y-146460000D02*
X143997000Y-146460000D01*
X153034000Y-146500000D02*
X144146000Y-146500000D01*
X152879000Y-146540000D02*
X144301000Y-146540000D01*
X152718000Y-146580000D02*
X144462000Y-146580000D01*
X152550000Y-146620000D02*
X144630000Y-146620000D01*
X152375000Y-146660000D02*
X144805000Y-146660000D01*
X152190000Y-146700000D02*
X144990000Y-146700000D01*
X151995000Y-146740000D02*
X145185000Y-146740000D01*
X151788000Y-146780000D02*
X145392000Y-146780000D01*
X151566000Y-146820000D02*
X145614000Y-146820000D01*
X151326000Y-146860000D02*
X145854000Y-146860000D01*
X151063000Y-146900000D02*
X146117000Y-146900000D01*
X150767000Y-146940000D02*
X146413000Y-146940000D01*
X150425000Y-146980000D02*
X146755000Y-146980000D01*
X150003000Y-147020000D02*
X147177000Y-147020000D01*
X149390000Y-147060000D02*
X147790000Y-147060000D01*
X158465000Y-110605998D02*
X158465000Y-114105998D01*
X160215000Y-112355998D02*
X156715000Y-112355998D01*
%TO.C,C1*%
D12*
X95272142Y-94226666D02*
X95319761Y-94274285D01*
X95367380Y-94417142D01*
X95367380Y-94512380D01*
X95319761Y-94655238D01*
X95224523Y-94750476D01*
X95129285Y-94798095D01*
X94938809Y-94845714D01*
X94795952Y-94845714D01*
X94605476Y-94798095D01*
X94510238Y-94750476D01*
X94415000Y-94655238D01*
X94367380Y-94512380D01*
X94367380Y-94417142D01*
X94415000Y-94274285D01*
X94462619Y-94226666D01*
X95367380Y-93274285D02*
X95367380Y-93845714D01*
X95367380Y-93560000D02*
X94367380Y-93560000D01*
X94510238Y-93655238D01*
X94605476Y-93750476D01*
X94653095Y-93845714D01*
%TO.C,R2*%
X169742380Y-109141666D02*
X169266190Y-109475000D01*
X169742380Y-109713095D02*
X168742380Y-109713095D01*
X168742380Y-109332142D01*
X168790000Y-109236904D01*
X168837619Y-109189285D01*
X168932857Y-109141666D01*
X169075714Y-109141666D01*
X169170952Y-109189285D01*
X169218571Y-109236904D01*
X169266190Y-109332142D01*
X169266190Y-109713095D01*
X168837619Y-108760714D02*
X168790000Y-108713095D01*
X168742380Y-108617857D01*
X168742380Y-108379761D01*
X168790000Y-108284523D01*
X168837619Y-108236904D01*
X168932857Y-108189285D01*
X169028095Y-108189285D01*
X169170952Y-108236904D01*
X169742380Y-108808333D01*
X169742380Y-108189285D01*
%TO.C,U1*%
X175982380Y-116331904D02*
X176791904Y-116331904D01*
X176887142Y-116284285D01*
X176934761Y-116236666D01*
X176982380Y-116141428D01*
X176982380Y-115950952D01*
X176934761Y-115855714D01*
X176887142Y-115808095D01*
X176791904Y-115760476D01*
X175982380Y-115760476D01*
X176982380Y-114760476D02*
X176982380Y-115331904D01*
X176982380Y-115046190D02*
X175982380Y-115046190D01*
X176125238Y-115141428D01*
X176220476Y-115236666D01*
X176268095Y-115331904D01*
%TO.C,TP1*%
X85336190Y-112990380D02*
X85669523Y-113990380D01*
X86002857Y-112990380D01*
X86336190Y-113990380D02*
X86336190Y-113323714D01*
X86336190Y-112990380D02*
X86288571Y-113038000D01*
X86336190Y-113085619D01*
X86383809Y-113038000D01*
X86336190Y-112990380D01*
X86336190Y-113085619D01*
X86812380Y-113323714D02*
X86812380Y-113990380D01*
X86812380Y-113418952D02*
X86860000Y-113371333D01*
X86955238Y-113323714D01*
X87098095Y-113323714D01*
X87193333Y-113371333D01*
X87240952Y-113466571D01*
X87240952Y-113990380D01*
%TO.C,TP3*%
X85312380Y-120864380D02*
X85645714Y-121864380D01*
X85979047Y-120864380D01*
X86312380Y-121864380D02*
X86312380Y-121197714D01*
X86312380Y-120864380D02*
X86264761Y-120912000D01*
X86312380Y-120959619D01*
X86360000Y-120912000D01*
X86312380Y-120864380D01*
X86312380Y-120959619D01*
X86740952Y-120959619D02*
X86788571Y-120912000D01*
X86883809Y-120864380D01*
X87121904Y-120864380D01*
X87217142Y-120912000D01*
X87264761Y-120959619D01*
X87312380Y-121054857D01*
X87312380Y-121150095D01*
X87264761Y-121292952D01*
X86693333Y-121864380D01*
X87312380Y-121864380D01*
%TO.C,TP2*%
X85312380Y-116800380D02*
X85645714Y-117800380D01*
X85979047Y-116800380D01*
X86312380Y-117800380D02*
X86312380Y-117133714D01*
X86312380Y-116800380D02*
X86264761Y-116848000D01*
X86312380Y-116895619D01*
X86360000Y-116848000D01*
X86312380Y-116800380D01*
X86312380Y-116895619D01*
X87312380Y-117800380D02*
X86740952Y-117800380D01*
X87026666Y-117800380D02*
X87026666Y-116800380D01*
X86931428Y-116943238D01*
X86836190Y-117038476D01*
X86740952Y-117086095D01*
%TO.C,TP4*%
X85312380Y-125182380D02*
X85645714Y-126182380D01*
X85979047Y-125182380D01*
X86312380Y-126182380D02*
X86312380Y-125515714D01*
X86312380Y-125182380D02*
X86264761Y-125230000D01*
X86312380Y-125277619D01*
X86360000Y-125230000D01*
X86312380Y-125182380D01*
X86312380Y-125277619D01*
X86693333Y-125182380D02*
X87312380Y-125182380D01*
X86979047Y-125563333D01*
X87121904Y-125563333D01*
X87217142Y-125610952D01*
X87264761Y-125658571D01*
X87312380Y-125753809D01*
X87312380Y-125991904D01*
X87264761Y-126087142D01*
X87217142Y-126134761D01*
X87121904Y-126182380D01*
X86836190Y-126182380D01*
X86740952Y-126134761D01*
X86693333Y-126087142D01*
%TO.C,TP5*%
X84836190Y-128992380D02*
X85169523Y-129992380D01*
X85502857Y-128992380D01*
X85979047Y-129992380D02*
X85883809Y-129944761D01*
X85836190Y-129897142D01*
X85788571Y-129801904D01*
X85788571Y-129516190D01*
X85836190Y-129420952D01*
X85883809Y-129373333D01*
X85979047Y-129325714D01*
X86121904Y-129325714D01*
X86217142Y-129373333D01*
X86264761Y-129420952D01*
X86312380Y-129516190D01*
X86312380Y-129801904D01*
X86264761Y-129897142D01*
X86217142Y-129944761D01*
X86121904Y-129992380D01*
X85979047Y-129992380D01*
X87169523Y-129325714D02*
X87169523Y-129992380D01*
X86740952Y-129325714D02*
X86740952Y-129849523D01*
X86788571Y-129944761D01*
X86883809Y-129992380D01*
X87026666Y-129992380D01*
X87121904Y-129944761D01*
X87169523Y-129897142D01*
X87502857Y-129325714D02*
X87883809Y-129325714D01*
X87645714Y-128992380D02*
X87645714Y-129849523D01*
X87693333Y-129944761D01*
X87788571Y-129992380D01*
X87883809Y-129992380D01*
%TO.C,L2*%
X162492380Y-94166666D02*
X162492380Y-94642857D01*
X161492380Y-94642857D01*
X161587619Y-93880952D02*
X161540000Y-93833333D01*
X161492380Y-93738095D01*
X161492380Y-93500000D01*
X161540000Y-93404761D01*
X161587619Y-93357142D01*
X161682857Y-93309523D01*
X161778095Y-93309523D01*
X161920952Y-93357142D01*
X162492380Y-93928571D01*
X162492380Y-93309523D01*
%TO.C,L1*%
X100667380Y-129686666D02*
X100667380Y-130162857D01*
X99667380Y-130162857D01*
X100667380Y-128829523D02*
X100667380Y-129400952D01*
X100667380Y-129115238D02*
X99667380Y-129115238D01*
X99810238Y-129210476D01*
X99905476Y-129305714D01*
X99953095Y-129400952D01*
%TO.C,R1*%
X93423333Y-93671380D02*
X93090000Y-93195190D01*
X92851904Y-93671380D02*
X92851904Y-92671380D01*
X93232857Y-92671380D01*
X93328095Y-92719000D01*
X93375714Y-92766619D01*
X93423333Y-92861857D01*
X93423333Y-93004714D01*
X93375714Y-93099952D01*
X93328095Y-93147571D01*
X93232857Y-93195190D01*
X92851904Y-93195190D01*
X94375714Y-93671380D02*
X93804285Y-93671380D01*
X94090000Y-93671380D02*
X94090000Y-92671380D01*
X93994761Y-92814238D01*
X93899523Y-92909476D01*
X93804285Y-92957095D01*
%TO.C,J1*%
X79869380Y-94968333D02*
X80583666Y-94968333D01*
X80726523Y-95015952D01*
X80821761Y-95111190D01*
X80869380Y-95254047D01*
X80869380Y-95349285D01*
X80869380Y-93968333D02*
X80869380Y-94539761D01*
X80869380Y-94254047D02*
X79869380Y-94254047D01*
X80012238Y-94349285D01*
X80107476Y-94444523D01*
X80155095Y-94539761D01*
%TO.C,C2*%
X167697142Y-129626666D02*
X167744761Y-129674285D01*
X167792380Y-129817142D01*
X167792380Y-129912380D01*
X167744761Y-130055238D01*
X167649523Y-130150476D01*
X167554285Y-130198095D01*
X167363809Y-130245714D01*
X167220952Y-130245714D01*
X167030476Y-130198095D01*
X166935238Y-130150476D01*
X166840000Y-130055238D01*
X166792380Y-129912380D01*
X166792380Y-129817142D01*
X166840000Y-129674285D01*
X166887619Y-129626666D01*
X166887619Y-129245714D02*
X166840000Y-129198095D01*
X166792380Y-129102857D01*
X166792380Y-128864761D01*
X166840000Y-128769523D01*
X166887619Y-128721904D01*
X166982857Y-128674285D01*
X167078095Y-128674285D01*
X167220952Y-128721904D01*
X167792380Y-129293333D01*
X167792380Y-128674285D01*
%TD*%
M02*
