M48
; DRILL file {KiCad (5.1.6-0-10_14)} date Friday, May 07, 2021 at 02:06:46 PM
; FORMAT={-:-/ absolute / inch / decimal}
; #@! TF.CreationDate,2021-05-07T14:06:46-07:00
; #@! TF.GenerationSoftware,Kicad,Pcbnew,(5.1.6-0-10_14)
; #@! TF.FileFunction,Plated,1,2,PTH
FMAT,2
INCH
T1C0.0157
T2C0.0315
T3C0.0394
T4C0.0598
T5C0.0787
T6C0.0945
%
G90
G05
T1
X3.875Y-4.85
X3.975Y-4.925
T2
X6.8982Y-4.3157
X6.8982Y-4.4496
X6.975Y-4.3404
X6.975Y-4.425
T3
X3.525Y-4.62
X3.53Y-4.78
X3.53Y-4.94
X3.525Y-4.47
X3.535Y-5.1
T4
X3.355Y-3.425
X3.355Y-3.625
X3.355Y-3.825
X3.355Y-4.025
T5
X5.85Y-4.9
X5.85Y-5.2937
X4.475Y-3.5063
X4.475Y-3.9
T6
X4.475Y-4.6484
X4.475Y-5.55
X5.85Y-3.25
X5.85Y-4.1516
T0
M30
